<svg width="792" height="296" viewBox="0 0 792 296" fill="none" xmlns="http://www.w3.org/2000/svg">
<rect width="791.016" height="295.312" transform="translate(0.918945 0.0625)" fill="transparent"/>
<path d="M626.612 19.0469C621.338 24.0566 620.547 24.3203 618.965 20.3652C616.592 14.3008 612.901 14.8281 614.483 20.8926C615.537 24.8477 614.219 26.166 608.418 26.957C604.463 27.4844 600.772 29.0664 600.244 30.6484C599.453 32.7578 603.672 33.5488 614.219 33.0215C630.567 31.9668 641.114 25.1113 638.213 17.4648C636.104 11.9277 633.467 12.1914 626.612 19.0469Z" fill="#66615B"/>
<path d="M485.02 21.6837C480.801 27.4845 480.801 27.4845 476.846 22.4747C473.155 17.2013 473.155 17.2013 472.891 23.0021C472.891 27.2208 471.836 28.5392 468.672 27.2208C466.299 26.4298 463.399 27.2208 462.08 29.3302C458.125 35.6583 459.444 36.713 468.145 34.0763C472.891 32.7579 477.11 32.7579 477.901 34.0763C480.537 37.7677 495.303 27.7482 496.094 21.6837C497.149 14.0372 490.293 14.0372 485.02 21.6837Z" fill="#66615B"/>
<path d="M343.693 25.1113C343.693 25.6387 346.593 30.6484 350.285 35.9219C359.777 49.8965 358.986 55.4336 347.648 55.4336C341.32 55.4336 336.837 53.3242 331.828 48.0508L325.236 40.9316L326.818 49.3691C328.4 57.8066 324.972 61.4981 321.281 55.1699C319.962 53.3242 317.853 54.1152 314.425 57.0156C309.415 61.4981 310.206 67.5625 315.48 64.1348C317.062 63.3438 328.4 62.0254 340.792 61.2344C358.722 60.4434 366.105 58.5977 376.652 53.0606C395.636 43.041 395.636 43.041 388.253 53.0606C384.562 58.0703 380.607 64.6621 379.552 67.5625C378.234 71.5176 372.169 75.209 358.458 80.2188C320.49 94.1934 304.406 109.75 321.544 116.078C328.664 118.979 334.201 117.397 331.828 113.178C330.773 111.859 327.872 110.805 324.972 110.805C315.744 110.805 321.017 104.477 337.101 96.5664C345.539 92.3477 369.533 82.8555 390.626 75.209C411.72 67.8262 429.65 60.1797 430.177 58.5977C430.705 57.0156 420.949 59.125 408.029 63.3438C395.373 67.8262 384.562 71.2539 384.035 71.2539C381.134 71.2539 384.562 64.3984 392.736 53.8516C405.128 37.2402 401.437 34.3399 381.134 44.6231C361.886 54.3789 359.513 54.6426 359.513 46.7324C359.513 39.877 350.285 23.793 346.33 23.793C345.011 23.793 343.693 24.3203 343.693 25.1113Z" fill="#66615B"/>
<path d="M275.137 31.4397C275.137 35.6584 274.082 36.9768 271.445 36.1858C269.336 35.3948 265.644 36.4495 262.744 38.2952C258.525 41.7229 258.789 42.2502 268.545 42.5139C274.346 42.7776 281.465 42.7776 284.101 42.5139C290.43 41.9866 298.867 34.8674 298.867 29.8577C298.867 25.1116 289.639 25.6389 285.42 30.6487C282.256 34.3401 281.728 34.3401 278.564 30.1213C275.4 25.6389 275.137 25.9026 275.137 31.4397Z" fill="#66615B"/>
<path d="M550.939 30.6484C545.929 43.5683 552.784 51.7421 560.431 42.2499C565.177 36.4491 565.177 36.1855 560.167 31.4394C553.839 25.3749 553.048 25.3749 550.939 30.6484Z" fill="#66615B"/>
<path d="M520.881 45.6777C530.9 54.3789 536.965 65.7168 534.064 70.4628C533.01 71.7812 527.736 75.2089 522.463 77.8457C516.926 80.2187 512.443 84.1738 512.443 86.2832C512.443 89.1836 516.926 87.6015 529.055 81.0097C538.02 76 558.85 66.2441 574.934 59.3886C591.281 52.5332 604.201 45.9414 603.41 44.623C601.828 42.25 587.854 47.2597 558.322 60.707C548.566 64.9257 540.393 68.6171 540.129 68.6171C539.865 68.6171 538.811 64.9257 537.756 60.4433C535.91 51.4785 522.199 36.9765 515.344 36.9765C512.443 37.2402 514.289 39.8769 520.881 45.6777Z" fill="#66615B"/>
<path d="M616.593 42.2502C614.484 45.6779 615.802 55.9612 625.821 121.352C630.04 148.246 634.259 178.041 635.05 187.797C637.423 211.264 641.642 208.1 641.642 182.787C641.642 166.44 632.677 101.84 626.876 76.5276C625.558 70.1994 625.558 70.1994 630.831 74.9455C635.841 79.428 636.368 79.428 636.368 75.4729C636.368 70.9904 621.339 39.6135 619.23 39.6135C618.702 39.6135 617.384 40.9319 616.593 42.2502Z" fill="#F5593D"/>
<path d="M718.635 48.8419C713.889 59.3888 714.68 63.3439 722.063 63.3439C732.082 63.3439 735.246 54.9064 727.6 47.7872L721.535 42.2501L718.635 48.8419Z" fill="#66615B"/>
<path d="M479.484 48.0508C477.638 52.5332 480.275 74.418 488.712 122.67C491.613 138.49 495.04 161.43 496.886 173.295C498.468 185.424 500.841 194.389 502.16 193.598C505.324 191.752 505.06 171.977 501.896 150.355C499.787 135.59 500.05 132.953 503.478 130.58C505.851 128.998 514.816 123.461 523.253 118.188C531.691 112.65 540.656 108.959 542.765 109.75C550.148 112.65 550.412 102.895 543.292 95.5117C537.492 89.9746 535.91 89.4473 532.482 92.3477C530.109 94.1934 528.263 98.9395 528.263 102.895C528.263 109.223 525.89 111.859 513.497 118.715C505.587 123.461 498.468 126.889 498.204 126.361C497.413 125.307 491.349 86.2832 491.349 81.5371C491.349 79.9551 493.195 79.9551 496.622 81.8008C503.214 85.2285 503.214 84.1738 496.622 70.9902C485.285 49.1055 481.066 43.5684 479.484 48.0508Z" fill="#66615B"/>
<path d="M130.119 52.7971C121.945 60.9709 123.527 63.6076 135.392 61.7619C148.048 59.6525 149.103 62.8166 137.765 69.4084C127.482 75.2092 129.591 78.3732 140.666 73.8908C150.158 69.9357 159.123 59.3889 159.123 52.5334C159.123 45.1506 137.501 45.4142 130.119 52.7971Z" fill="#66615B"/>
<path d="M442.569 50.6876C441.515 53.0607 445.733 83.6466 451.798 118.715C458.126 154.838 462.081 183.315 460.763 184.633C459.444 185.688 448.897 190.697 437.56 195.443C415.938 204.145 405.919 212.582 381.134 242.113C372.169 252.924 367.95 255.824 362.149 255.824C353.448 255.824 348.966 249.76 348.966 238.686C348.966 229.193 362.677 200.453 370.851 192.807L377.97 186.479L383.507 193.334C394.054 207.045 404.864 199.135 394.845 185.16C392.472 181.733 391.153 178.832 391.417 178.305C393.263 176.986 416.466 168.813 418.048 168.813C419.103 168.813 420.157 173.295 420.685 178.568C421.739 190.17 429.122 193.861 431.495 184.106C433.341 178.041 430.704 173.031 428.858 178.568C426.485 184.897 422.53 181.996 423.321 174.877C423.849 169.34 427.013 165.912 435.45 161.43C445.733 155.629 453.907 146.401 451.007 143.5C448.897 141.127 379.288 131.899 364.786 131.899C346.856 131.899 338.419 136.908 338.419 147.983C338.419 156.947 344.483 163.803 359.513 171.449C365.313 174.35 370.06 177.25 370.06 178.041C370.06 178.568 364.522 183.051 357.667 187.797C350.548 192.279 333.145 207.836 318.644 221.811C304.142 235.785 287.003 250.815 280.675 255.561C249.825 277.445 237.96 251.869 259.317 209.418C266.964 194.389 269.864 185.424 269.864 176.723C269.864 166.44 262.481 114.496 257.735 91.0294C256.153 83.1193 256.153 83.1193 261.69 88.129C269.337 94.9845 268.546 90.5021 259.054 73.0997C242.706 43.0411 241.124 50.424 251.407 107.113C265.909 186.215 265.645 184.633 260.108 188.588C257.472 190.697 249.561 194.389 242.179 196.762C222.14 203.354 210.011 212.055 185.226 237.895C165.45 258.725 161.759 261.361 156.222 259.779C148.048 257.143 145.938 253.979 145.938 243.695C145.938 233.676 161.759 201.244 171.778 190.434C182.061 179.359 206.583 170.658 230.313 169.867C245.343 169.34 250.88 168.022 253.253 164.594C257.735 158.266 255.626 156.947 235.587 153.256C226.095 151.41 206.056 145.873 190.763 140.6C167.032 132.426 161.759 131.635 151.476 133.481C140.138 135.854 132.228 142.709 136.446 146.928C137.501 147.983 145.411 149.301 153.585 149.301C167.56 149.565 194.454 156.42 199.464 160.902C200.519 161.693 190.763 165.912 177.579 169.867C150.421 178.041 148.048 177.514 138.028 161.166C130.382 148.51 127.218 147.983 115.089 157.211C103.751 165.912 98.4775 176.459 98.4775 190.697C98.4775 201.772 97.9502 202.563 87.4033 207.309C80.2842 210.209 66.3096 221.811 50.7529 237.895C24.3857 264.789 16.4756 269.008 8.56543 259.516C0.655273 250.024 10.1475 217.592 24.6494 204.408C30.4502 199.135 37.833 184.369 37.833 177.777C37.833 171.449 33.3506 173.822 31.5049 180.678C29.3955 188.852 23.3311 191.752 18.0576 187.27C15.4209 185.16 14.1025 179.096 14.1025 169.076C14.1025 156.42 16.2119 149.828 25.9678 129.526C38.8877 102.895 38.8877 102.895 35.1963 102.895C33.8779 102.895 27.2861 113.969 20.4307 127.68C10.4111 147.983 8.03808 155.629 6.9834 170.658C6.19238 185.16 6.71972 190.17 10.9385 196.498C15.9482 204.408 15.9482 204.408 9.62012 217.328C5.92871 224.447 2.50098 236.313 1.70996 244.223C0.391601 256.615 0.918945 258.725 6.9834 264.789C12.5205 270.326 16.4756 271.645 26.2314 271.645C38.3603 271.645 39.1514 271.117 58.6631 250.287C85.0303 222.074 93.7314 217.856 119.044 219.965L138.292 221.547L137.501 214.428C136.974 208.627 134.601 206.254 125.372 203.09C119.308 200.717 111.661 196.498 108.761 193.334C102.433 187.006 104.015 182.26 115.616 171.449L122.735 164.858L127.218 170.922C140.401 189.643 142.511 190.961 153.321 190.697L164.132 190.17L156.222 203.354C144.884 222.865 140.665 234.203 140.665 245.805C140.665 259.779 149.894 269.008 163.604 269.008C172.569 269.008 175.47 266.899 195.772 245.541C213.175 227.611 222.14 220.492 234.005 215.219C242.442 211.527 250.616 208.363 251.671 208.363C252.989 208.363 251.671 213.109 248.77 218.647C233.478 248.969 241.388 279.555 264.591 279.555C276.983 279.555 281.202 276.391 324.972 233.676C342.901 216.01 356.876 202.826 356.349 204.408C355.821 205.727 352.657 212.846 349.493 219.701C342.374 235.522 342.11 246.596 348.966 257.934C353.448 265.317 355.558 266.371 365.05 266.371C376.651 266.371 381.661 262.416 405.655 233.412C413.565 223.656 421.212 218.383 437.296 210.736C460.499 199.926 466.3 194.916 468.936 184.369C470.255 178.832 462.608 122.406 455.489 87.0743C453.644 78.6368 453.907 78.1095 457.862 81.5372C465.245 87.338 463.399 79.6915 453.38 62.0255C446.524 50.1603 443.888 47.2599 442.569 50.6876ZM391.944 149.037C407.501 150.092 420.157 151.674 420.157 152.465C420.157 155.629 380.87 169.604 377.442 167.758C375.597 166.967 367.686 162.221 360.304 157.211C346.065 148.51 344.747 144.027 356.876 146.137C360.567 146.928 376.124 148.246 391.944 149.037Z" fill="#66615B"/>
<path d="M281.729 55.4336C280.938 56.752 283.575 82.5918 288.057 112.65C292.276 142.973 296.759 176.195 297.813 186.742C298.868 197.289 300.45 206.518 301.768 207.045C302.823 207.836 304.669 201.771 305.46 193.861C306.778 183.314 305.46 165.912 300.186 132.426C296.231 106.85 292.54 84.9649 291.749 83.6465C289.376 79.6914 294.386 82.0645 297.813 86.2832C304.932 96.0391 301.768 81.5371 293.331 67.0352C284.893 52.0059 284.366 51.4785 281.729 55.4336Z" fill="#66615B"/>
<path d="M184.171 72.3086C122.736 94.1934 71.0562 116.078 55.7632 127.152C42.0523 136.645 50.2261 135.59 71.3199 124.779C96.8961 111.596 146.203 91.5566 194.191 75.209C213.966 68.3535 230.314 61.4981 230.314 60.4434C230.314 56.4883 225.041 57.8066 184.171 72.3086Z" fill="#66615B"/>
<path d="M88.4578 70.463C87.1395 73.0997 85.2938 78.6368 84.2391 82.5919L82.3934 89.9747L75.8016 81.8008C68.9461 73.627 63.1453 71.7813 60.2449 76.5274C57.6082 80.7462 64.4637 87.338 69.7371 85.7559C73.1649 84.7012 75.0106 86.5469 77.6473 93.6661C81.3387 103.422 85.2938 106.059 85.2938 98.1485C85.2938 87.8653 91.0946 73.3633 94.5223 74.9454C99.5321 76.7911 101.641 73.627 98.2137 69.4083C94.2586 64.6622 91.0946 65.1895 88.4578 70.463Z" fill="#66615B"/>
<path d="M664.581 75.209C661.416 78.373 661.153 80.4824 663.526 85.7559C667.481 93.666 667.481 93.666 677.237 85.7559C682.774 81.0098 683.829 79.1641 680.928 79.1641C678.555 79.1641 675.918 77.3184 674.864 75.209C673.018 70.1992 669.59 70.1992 664.581 75.209Z" fill="#66615B"/>
<path d="M734.455 77.0548C732.873 78.6368 731.291 83.1193 731.291 86.8107V93.6661L724.435 84.965C720.744 80.4825 715.998 76.5275 713.888 76.5275C707.824 76.5275 710.46 85.2286 717.316 88.3927C720.744 89.7111 724.699 94.4572 726.281 98.9396L729.181 106.85L732.345 96.3029C736.3 82.3282 738.673 79.1642 743.683 81.0099C746.584 82.0646 747.375 81.5372 746.584 78.9005C745.001 73.8907 738.673 72.8361 734.455 77.0548Z" fill="#66615B"/>
<path d="M569.923 82.8554C564.914 87.8651 563.331 93.6659 567.814 91.0292C569.396 90.2382 570.451 91.8202 570.451 94.4569C570.451 102.367 576.515 106.058 582.316 101.84C584.953 99.994 589.435 98.9394 592.072 99.7304C595.763 100.521 596.818 99.4667 596.818 93.4022C596.818 84.9647 592.863 77.0546 590.226 79.6913C589.171 80.4823 589.699 83.9101 591.544 86.8104C596.027 95.248 589.699 93.6659 584.953 84.9647L580.997 77.8456L581.525 86.8104C582.052 91.8202 580.997 96.3026 579.152 96.83C577.306 97.621 575.724 94.1933 575.197 88.1288C574.406 78.6366 574.142 78.3729 569.923 82.8554Z" fill="#66615B"/>
<path d="M159.386 93.4023C157.54 95.5117 155.431 101.312 154.64 106.586C153.585 113.969 154.113 116.342 157.804 117.66C162.55 119.506 171.251 111.596 168.087 108.432C167.296 107.641 165.714 108.695 164.396 110.805C160.177 117.66 158.068 111.068 161.232 101.049C164.66 90.2382 164.132 87.8652 159.386 93.4023Z" fill="#66615B"/>
<path d="M424.376 99.9941C425.431 106.059 425.167 108.168 423.058 107.113C421.476 106.059 420.157 103.686 420.157 101.576C420.157 99.4668 418.839 97.0937 416.993 96.039C414.884 94.7207 414.62 96.5664 415.675 102.631C416.993 108.959 416.466 110.805 414.093 110.277C412.511 109.486 410.665 106.586 410.138 103.422C408.819 95.5117 404.337 96.039 404.337 103.949C404.337 112.914 409.61 116.078 420.948 114.232C428.858 113.178 430.704 111.596 430.704 107.113C430.704 103.949 428.858 98.9394 426.749 96.039C422.794 91.2929 422.53 91.5566 424.376 99.9941Z" fill="#66615B"/>
<path d="M221.086 102.895C222.668 111.596 222.404 111.86 218.449 107.113C216.339 104.213 214.494 101.049 214.494 99.7307C214.494 98.676 213.439 97.6213 212.121 97.6213C210.539 97.6213 210.275 101.84 211.066 106.85C212.121 112.914 211.593 116.078 209.484 116.078C207.902 116.078 206.584 113.178 206.584 109.75C206.584 102.104 201.574 98.1487 198.41 103.158C197.091 105.268 197.355 107.113 198.673 107.641C200.255 108.168 201.31 110.805 201.31 113.705C201.31 120.033 208.429 123.197 212.648 118.979C214.23 117.397 218.185 116.078 221.613 116.078C228.996 116.078 230.05 106.85 223.722 98.676C219.767 93.9299 219.503 94.1936 221.086 102.895Z" fill="#66615B"/>
<path d="M375.333 101.84C373.751 105.531 372.696 109.75 372.696 111.332C372.696 112.914 370.06 111.859 366.632 108.695C360.304 102.631 351.603 101.049 351.603 105.795C351.603 107.113 355.294 109.75 359.513 111.332C364.522 112.914 367.95 116.342 369.005 120.297C370.851 127.68 375.333 128.734 375.333 121.615C375.333 112.123 380.87 100.522 384.825 102.104C386.935 102.895 388.517 101.84 388.517 99.2032C388.517 92.0841 378.233 94.1935 375.333 101.84Z" fill="#66615B"/>
<path d="M681.721 108.696C680.139 110.541 678.029 115.551 677.238 119.506L675.393 126.625L669.064 120.033C663.527 113.969 652.189 110.805 652.189 115.287C652.453 120.033 657.199 124.252 661.418 123.461C664.582 122.934 667.482 125.571 670.383 131.108C672.756 135.854 675.393 139.809 676.184 139.809C677.238 139.809 678.82 134.272 679.875 127.68C681.193 118.715 683.039 115.024 686.73 114.233C689.631 113.442 691.477 111.596 690.949 110.014C689.631 105.531 684.885 105.004 681.721 108.696Z" fill="#66615B"/>
<path d="M111.661 120.297C107.706 130.844 108.497 137.172 113.771 137.172C124.845 137.172 128.273 125.571 119.571 117.924C114.298 113.442 114.034 113.705 111.661 120.297Z" fill="#66615B"/>
<path d="M763.985 117.397C762.93 119.77 767.149 132.69 773.214 146.664C779.014 160.375 784.024 173.559 784.024 175.668C784.024 183.842 766.622 177.514 763.194 168.022C761.085 162.748 760.557 163.012 756.866 171.977C753.966 178.832 751.065 181.996 747.374 181.996C738.409 181.996 733.926 179.096 733.926 173.032C733.926 168.285 732.872 168.813 725.225 177.25C710.723 193.862 698.331 192.807 689.63 174.614C683.565 161.957 677.501 160.903 666.426 171.713C656.671 181.205 650.87 194.916 652.716 204.409C653.77 209.682 651.925 211.528 640.587 216.801C632.676 220.493 619.493 231.039 607.1 243.432C593.126 257.407 584.688 263.735 580.469 263.735C562.276 263.735 563.594 240.004 583.106 214.164C588.116 207.573 591.544 205.727 598.135 205.727C604.727 205.727 608.419 203.881 612.637 198.344C620.02 189.379 618.702 172.768 609.21 152.993C605.782 145.873 603.936 139.809 604.991 139.809C609.737 139.809 607.1 132.69 599.454 125.307L591.544 117.66V127.416C591.544 132.69 594.708 143.764 598.399 152.201C602.091 160.639 606.837 171.977 608.682 177.25C612.637 188.061 611.055 189.907 596.553 189.907C586.534 189.907 582.315 183.051 574.669 154.311C571.241 141.918 567.286 130.317 565.44 128.471C560.958 123.989 561.749 143.237 567.022 164.067L571.505 181.996L562.54 191.225C555.421 198.608 551.466 200.453 543.555 200.453C528.262 200.453 524.307 192.543 526.68 166.176C529.317 133.217 519.298 140.336 510.069 178.041C507.169 189.379 502.95 200.453 500.577 202.826C496.622 206.782 495.831 206.518 491.085 200.717C487.657 196.498 486.075 190.434 486.075 180.414C486.075 164.594 481.856 160.903 480.274 175.405C478.956 186.215 484.493 206.518 489.766 210.737C491.876 212.582 496.358 213.637 499.786 213.11C506.378 212.319 510.069 204.145 515.606 178.041L519.034 162.221L520.352 182.787C521.407 201.508 522.462 204.145 529.053 209.946C533.009 213.373 539.073 216.274 542.501 216.274C551.466 216.274 565.968 205.463 570.714 195.444L574.932 186.743L580.206 195.971L585.743 205.2L580.469 210.209C572.296 217.592 562.54 238.686 562.54 249.233C562.54 256.352 564.649 260.834 570.186 266.635C582.843 279.291 593.126 276.127 617.911 252.133C644.542 226.293 651.661 223.92 681.983 231.039C689.102 232.621 689.366 232.358 688.575 225.239C688.048 219.174 685.147 216.01 674.073 210.209C657.725 201.508 656.671 196.762 668.272 185.688L676.446 178.041L680.665 183.842C683.038 187.006 687.257 192.807 689.893 196.498C696.485 205.727 711.251 205.727 720.743 196.498C727.071 190.434 728.126 190.17 731.29 193.862C736.563 200.19 748.956 198.871 753.966 191.489L758.184 184.897L768.204 190.17C787.979 200.453 796.68 184.633 786.661 156.42C777.96 132.426 777.96 131.899 781.124 131.899C782.969 131.899 781.124 127.68 777.169 122.67C769.522 112.651 766.094 111.332 763.985 117.397Z" fill="#F5593D"/>
<path d="M729.972 117.924C721.271 119.242 712.833 125.57 712.833 130.844C712.833 133.217 715.733 133.744 722.853 132.953L732.608 131.635L724.698 138.227C720.479 141.918 718.37 145.082 720.216 145.082C726.808 145.082 738.409 136.645 743.155 128.734C747.11 122.143 747.11 120.297 744.21 118.451C742.101 117.133 739.991 116.342 739.2 116.605C738.409 116.605 734.454 117.396 729.972 117.924Z" fill="#66615B"/>
<path d="M318.907 128.207C316.007 135.59 317.325 149.564 320.753 152.729C325.235 156.156 327.872 153.783 327.608 146.664C327.608 143.5 326.817 142.709 326.026 144.555C323.39 151.41 320.489 144.555 321.808 134.535C323.39 123.725 321.808 120.561 318.907 128.207Z" fill="#66615B"/>
<path d="M697.277 139.281C693.322 146.928 693.586 159.584 698.068 163.275C701.232 165.912 702.55 165.385 704.66 161.166C708.879 153.783 708.351 152.465 702.287 154.31C696.222 156.156 695.695 153.783 699.65 143.5C703.078 135.062 701.232 131.898 697.277 139.281Z" fill="#66615B"/>
<path d="M74.7477 151.674C73.4293 155.365 72.1109 160.375 72.1109 162.484C72.1109 165.121 70.0016 164.067 66.0465 159.32C61.5641 154.311 58.4 152.729 54.9723 153.783C51.2809 155.365 51.0172 156.42 53.6539 159.584C55.4996 161.693 58.9273 163.539 61.3004 163.539C63.9371 163.539 67.6285 167.494 70.0016 171.977L73.9566 180.678L76.5934 166.176C78.4391 154.311 79.7574 151.938 83.7125 152.465C89.777 153.52 87.9313 146.664 81.8668 145.609C78.9664 145.082 76.3297 147.192 74.7477 151.674Z" fill="#66615B"/>
<path d="M319.698 174.613C317.061 179.36 317.589 180.942 322.598 185.16C330.509 191.488 332.882 191.225 336.046 182.787C338.155 176.986 337.891 174.877 334.2 172.24C327.344 167.231 323.126 168.022 319.698 174.613Z" fill="#66615B"/>
<path d="M188.126 189.906C185.226 191.752 184.962 193.071 187.335 194.653C188.917 195.707 190.236 198.871 189.972 201.772C189.181 210.473 199.2 209.682 209.22 200.453C220.031 190.434 217.657 186.742 206.583 196.235C196.036 204.936 193.927 204.936 195.509 195.18C196.564 187.006 194.718 185.688 188.126 189.906Z" fill="#66615B"/>
<path d="M51.2807 201.244C49.6986 202.826 48.3803 206.518 48.3803 209.418C48.3803 212.582 41.2611 222.074 32.0326 231.303C23.0678 240.531 17.0033 247.914 18.849 247.914C23.3314 247.914 50.4896 222.338 52.3353 216.274C53.1264 213.637 56.2904 211 58.9271 210.209C62.3549 209.418 63.6732 207.309 62.6185 204.936C60.5092 199.399 54.9721 197.553 51.2807 201.244Z" fill="#66615B"/>
<path d="M276.72 208.364C271.182 222.074 271.182 237.104 276.456 238.949C281.993 241.059 288.321 235.258 288.321 228.403C288.057 222.865 288.057 222.865 284.366 227.875C278.302 236.049 276.456 230.512 279.884 214.428C283.575 196.235 282.52 193.862 276.72 208.364Z" fill="#66615B"/>
<path d="M771.368 211.527C766.358 216.537 767.677 220.492 775.059 225.502C780.86 229.193 782.442 229.457 784.288 226.557C789.034 218.91 785.079 208.363 777.433 208.363C775.85 208.363 773.214 209.682 771.368 211.527Z" fill="#F5593D"/>
<path d="M367.422 218.646C363.204 226.82 364.258 234.73 369.532 234.73C380.342 234.73 384.297 222.602 375.333 217.064C371.114 214.164 369.796 214.428 367.422 218.646Z" fill="#66615B"/>
<path d="M161.495 226.82C157.54 239.74 160.704 244.75 169.405 240.268C176.261 236.576 176.524 230.776 169.933 222.338L164.659 216.01L161.495 226.82Z" fill="#66615B"/>
<path d="M745.793 224.184C744.738 225.766 742.893 226.293 741.574 225.502C740.256 224.447 738.41 225.766 737.619 227.875C736.564 230.775 733.928 231.566 729.709 230.512C724.699 229.193 720.48 231.83 708.352 243.168C699.914 251.078 687.258 261.361 680.402 266.107C673.283 270.854 668.273 275.336 668.801 276.127C671.701 279.027 694.113 264.525 708.879 250.287C719.426 240.268 726.018 235.785 727.6 237.367C731.291 241.059 749.484 231.83 749.748 226.029C749.748 221.02 748.166 220.229 745.793 224.184Z" fill="#66615B"/>
<path d="M585.215 231.039C582.051 239.213 583.633 245.278 588.907 245.278C596.817 245.278 600.245 236.313 594.444 231.039C588.643 225.766 587.325 225.766 585.215 231.039Z" fill="#66615B"/>
<path d="M426.222 233.94C421.476 235.785 422.003 240.004 426.749 240.004C429.913 240.004 430.177 241.059 428.068 245.014C423.849 253.451 424.904 261.098 430.177 261.098C435.187 261.098 454.962 248.178 458.39 242.641C462.609 236.049 456.808 237.104 447.316 245.014C433.341 256.352 425.695 255.824 434.659 244.223C442.042 234.467 437.56 229.193 426.222 233.94Z" fill="#66615B"/>
<path d="M478.165 248.178C456.281 261.098 444.152 270.326 446.788 272.699C448.107 273.754 499.786 243.168 505.06 237.895C512.179 230.775 500.05 235.522 478.165 248.178Z" fill="#66615B"/>
<path d="M764.249 246.86C742.892 256.352 737.091 259.779 739.728 262.416C741.574 264.262 789.298 242.377 789.298 239.477C789.298 236.313 787.189 236.84 764.249 246.86Z" fill="#66615B"/>
<path d="M211.856 243.168C211.856 245.014 214.229 249.496 217.13 253.188C220.03 257.143 222.403 263.998 222.403 269.799C222.403 275.863 223.458 279.291 225.04 278.237C228.468 276.127 228.468 263.998 224.776 253.451C221.612 244.75 211.856 236.84 211.856 243.168Z" fill="#66615B"/>
<path d="M653.77 251.605C633.468 262.943 622.13 271.645 627.403 271.645C631.886 271.645 678.556 244.75 678.556 242.377C678.556 238.686 675.655 239.74 653.77 251.605Z" fill="#66615B"/>
<path d="M86.3488 249.76C84.7668 255.297 85.8215 257.934 90.5676 261.625C96.8957 266.635 96.8957 266.635 101.114 261.361C104.806 256.088 105.597 256.088 111.134 259.779C116.671 263.734 117.198 263.734 119.835 257.406C125.109 246.068 114.034 237.367 106.388 246.596C103.224 250.287 102.433 250.287 96.8957 246.596C88.7219 241.322 88.1945 241.586 86.3488 249.76Z" fill="#66615B"/>
<path d="M324.708 261.098C311.261 270.063 301.768 279.555 306.514 279.555C310.733 279.555 338.419 258.988 338.419 255.824C338.419 252.133 338.155 252.397 324.708 261.098Z" fill="#66615B"/>
</svg>
