<?xml version="1.0" standalone="no"?>
<!DOCTYPE svg PUBLIC "-//W3C//DTD SVG 20010904//EN"
 "http://www.w3.org/TR/2001/REC-SVG-20010904/DTD/svg10.dtd">
<svg version="1.0" xmlns="http://www.w3.org/2000/svg"
 width="1350.000000pt" height="1350.000000pt" viewBox="0 0 1350.000000 1350.000000"
 preserveAspectRatio="xMidYMid meet">
<g transform="translate(0.000000,1350.000000) scale(0.100000,-0.100000)"
fill="#66615b" stroke="none">
<path d="M2940 9751 c-28 -22 -410 -273 -425 -281 -49 -24 -63 -43 -75 -101
-7 -33 -10 -62 -7 -65 3 -4 20 2 36 12 89 56 499 335 509 346 6 8 13 34 14 58
3 51 -12 60 -52 31z"/>
<path d="M11555 9731 c-6 -5 -32 -21 -60 -36 -27 -14 -63 -35 -80 -46 -16 -10
-37 -22 -45 -26 -15 -7 -256 -152 -308 -185 -15 -10 -36 -22 -47 -27 -29 -12
-40 -28 -59 -85 -18 -56 -9 -80 22 -59 9 7 59 38 110 70 52 32 106 66 120 75
15 10 34 21 42 25 8 4 71 40 139 80 67 40 126 73 130 73 26 0 87 109 77 136
-6 16 -27 18 -41 5z" fill="#F5593C"/>
<path d="M7125 9634 c-77 -47 -174 -107 -215 -135 -41 -27 -82 -52 -90 -56 -8
-4 -43 -26 -78 -50 -35 -24 -66 -43 -70 -43 -4 0 -28 -18 -54 -40 -39 -34 -48
-48 -54 -86 -3 -25 -2 -50 2 -54 6 -6 40 11 82 40 41 28 75 50 77 50 2 0 52
33 112 72 59 40 116 77 125 83 10 5 61 37 113 70 53 33 106 65 118 72 51 28
78 59 87 98 17 76 0 74 -155 -21z"/>
<path d="M7102 9312 c-89 -59 -182 -198 -182 -271 0 -44 22 -68 90 -96 64 -27
66 -30 33 -62 -39 -37 -93 -108 -93 -122 0 -25 47 -3 98 46 7 7 50 36 95 65
71 47 112 69 177 97 15 7 69 106 70 129 0 18 -17 15 -87 -18 -86 -41 -166 -41
-238 -1 -39 21 -51 34 -53 55 -5 43 22 66 77 66 38 0 53 -6 79 -30 18 -16 37
-30 41 -30 16 0 42 39 47 71 8 47 -9 85 -48 109 -43 26 -57 25 -106 -8z"/>
<path d="M2814 9284 c-43 -28 -110 -97 -125 -129 -5 -11 -20 -38 -34 -60 -31
-51 -33 -113 -5 -137 26 -23 96 -58 115 -58 27 0 16 -20 -45 -87 -33 -36 -60
-72 -60 -79 0 -28 33 -12 128 59 53 40 104 76 112 80 8 4 35 18 59 32 24 14
50 25 57 25 17 0 64 57 64 78 0 9 7 26 15 36 25 33 -10 51 -44 23 -29 -25
-106 -47 -161 -47 -70 1 -163 44 -168 79 -6 39 34 71 87 71 37 0 51 -6 78 -32
40 -38 62 -32 76 22 13 50 0 95 -34 124 -39 33 -66 33 -115 0z"/>
<path d="M11452 9213 c-84 -83 -152 -193 -152 -249 0 -29 62 -81 113 -95 49
-13 48 -34 -4 -84 -39 -39 -69 -83 -69 -104 0 -14 32 5 120 69 103 76 146 103
213 135 52 24 61 33 83 82 37 85 34 88 -54 46 -48 -23 -70 -27 -138 -27 -72 0
-85 3 -125 30 -24 16 -45 38 -47 47 -5 23 54 77 83 77 27 0 95 -37 95 -51 0
-5 11 -9 24 -9 18 0 29 10 45 40 20 39 20 43 5 73 -29 57 -43 67 -95 67 -44 0
-53 -4 -97 -47z" fill="#F5593C"/>
<path d="M10886 9042 c-3 -5 -36 -28 -73 -51 -38 -23 -77 -47 -87 -54 -22 -13
-89 -59 -267 -179 -114 -77 -116 -79 -127 -129 -7 -28 -12 -59 -12 -70 0 -22
-5 -25 155 86 47 33 94 65 103 70 9 6 33 22 53 38 20 15 40 27 44 27 4 0 24
14 45 30 21 17 41 30 45 30 4 0 24 14 45 30 21 17 42 30 47 30 41 0 89 140 51
148 -9 2 -19 -1 -22 -6z" fill="#F5593C"/>
<path d="M2018 9024 c-54 -18 -149 -151 -135 -188 6 -15 11 -14 40 8 31 24 42
26 135 26 55 0 103 -4 106 -8 12 -20 -29 -52 -159 -124 -103 -57 -101 -55 -88
-69 11 -10 22 -10 60 4 27 9 57 17 68 17 11 0 33 7 49 15 15 8 33 15 40 15 20
1 72 54 135 137 33 45 61 85 61 88 0 4 7 13 15 21 16 16 21 53 8 55 -59 9
-310 12 -335 3z" fill="#F5593C"/>
<path d="M6032 8845 c-43 -36 -102 -129 -102 -159 0 -31 4 -32 37 -6 22 17 41
20 129 20 97 0 104 -1 104 -20 0 -11 -5 -20 -11 -20 -17 0 -229 -130 -229
-141 0 -14 57 -11 119 7 127 37 160 63 270 212 62 86 73 115 45 126 -9 3 -87
6 -174 6 -155 0 -159 -1 -188 -25z" fill="#F5593C"/>
<path d="M12588 8792 c-1 -5 -66 -56 -143 -115 -336 -256 -334 -254 -340 -292
-3 -19 -8 -51 -11 -71 -5 -34 -4 -35 18 -23 13 6 61 44 108 83 46 39 133 108
193 154 204 157 205 158 213 220 6 48 5 52 -14 52 -11 0 -22 -4 -24 -8z" fill="#F5593C"/>
<path d="M7047 8744 c-4 -4 -7 -28 -8 -53 0 -25 -4 -68 -8 -96 -9 -50 6 -199
27 -280 6 -22 18 -76 27 -120 9 -44 22 -107 30 -140 7 -33 20 -96 30 -140 9
-44 22 -107 30 -140 7 -33 20 -96 30 -140 9 -44 22 -107 30 -140 7 -33 20
-103 29 -155 9 -52 23 -135 31 -185 8 -49 15 -119 16 -155 0 -68 13 -118 22
-90 21 63 27 111 27 201 0 112 -4 154 -50 490 -4 31 -12 79 -18 105 -6 27 -18
87 -27 134 -9 47 -23 114 -30 150 -8 36 -21 100 -29 143 -37 184 -48 235 -62
283 -8 28 -14 59 -14 69 0 10 -6 41 -14 69 -8 28 -22 80 -32 116 -18 69 -26
84 -37 74z"/>
<path d="M8315 8593 c-88 -62 -167 -116 -265 -184 -96 -66 -133 -93 -147 -106
-7 -6 -28 -21 -47 -32 -27 -17 -38 -33 -50 -75 -28 -97 -20 -101 73 -33 39 28
108 78 154 110 166 117 222 156 232 165 6 4 17 11 25 14 8 4 40 27 71 51 43
34 57 53 62 78 3 19 8 42 12 52 14 34 -39 17 -120 -40z" fill="#F5593C"/>
<path d="M11586 8548 c-21 -111 -24 -83 33 -388 7 -36 19 -100 27 -142 37
-204 51 -274 88 -461 40 -194 64 -361 81 -542 6 -71 14 -123 17 -115 28 74 33
117 33 260 -1 143 -7 215 -37 405 -6 39 -13 88 -15 110 -7 80 -79 460 -139
735 -8 36 -22 103 -32 149 -10 47 -23 86 -28 88 -5 2 -18 -43 -28 -99z" fill="#F5593C"/>
<path d="M5535 8629 c-11 -5 -33 -18 -50 -29 -16 -11 -43 -26 -60 -34 -16 -8
-52 -29 -80 -45 -27 -17 -59 -35 -70 -41 -11 -6 -33 -19 -50 -30 -16 -11 -39
-24 -50 -30 -11 -6 -33 -19 -50 -30 -16 -11 -39 -24 -50 -30 -21 -12 -31 -18
-114 -69 -56 -36 -81 -75 -81 -129 0 -37 9 -46 29 -29 9 8 67 45 129 83 62 38
125 77 140 86 15 10 36 22 47 28 11 6 34 19 50 30 17 11 39 24 50 30 11 6 34
19 50 30 17 11 39 24 50 30 11 6 34 19 50 30 17 11 39 24 50 29 27 11 38 27
54 73 18 54 3 70 -44 47z"/>
<path d="M2854 8608 c-5 -7 -10 -73 -12 -146 -4 -133 -2 -153 44 -392 8 -42
14 -87 14 -100 0 -14 7 -59 15 -100 39 -187 64 -319 74 -400 4 -30 13 -84 20
-120 7 -36 17 -90 22 -120 6 -30 15 -94 19 -141 5 -47 14 -115 19 -150 6 -35
11 -106 11 -156 0 -69 3 -93 13 -93 21 0 37 119 37 277 0 175 -22 400 -66 673
-30 185 -46 276 -59 350 -8 41 -21 118 -30 170 -27 156 -55 298 -84 424 -7 33
-25 44 -37 24z"/>
<path d="M8970 8603 c-59 -23 -130 -120 -130 -178 0 -35 6 -47 45 -85 25 -24
45 -49 45 -56 0 -14 -84 -85 -158 -134 -152 -100 -179 -117 -195 -123 -21 -8
-23 -27 -2 -27 8 0 29 6 47 14 18 8 53 22 78 32 102 41 226 138 265 208 10 17
13 16 42 -13 42 -41 66 -40 87 4 17 35 17 36 -13 74 -33 42 -37 61 -20 92 5
11 11 46 11 77 1 98 -36 140 -102 115z m23 -136 c13 -56 -4 -69 -43 -32 -44
42 -40 79 9 73 20 -2 27 -11 34 -41z"/>
<path d="M3935 8454 c-66 -46 -129 -88 -140 -94 -11 -5 -58 -37 -105 -71 -47
-33 -115 -81 -153 -106 -37 -25 -74 -55 -82 -66 -17 -24 -21 -117 -5 -117 5 0
47 27 92 60 147 106 170 122 237 168 36 25 107 73 156 106 113 75 134 99 135
153 0 23 -3 44 -7 46 -5 2 -62 -33 -128 -79z" fill="#F5593C"/>
<path d="M11012 8518 c-6 -6 -12 -21 -12 -33 0 -11 -11 -33 -25 -48 -34 -36
-77 -36 -103 0 -17 23 -22 25 -36 14 -9 -7 -16 -22 -16 -33 0 -10 -22 -41 -50
-68 -44 -45 -54 -50 -93 -50 -55 0 -67 13 -67 73 0 60 -16 59 -41 -3 -23 -57
-24 -124 -3 -160 24 -40 69 -63 108 -56 43 8 108 51 132 88 18 27 22 29 65 24
55 -7 84 2 121 39 28 28 58 112 58 162 0 40 -21 68 -38 51z" fill="#F5593C"/>
<path d="M2261 8464 c-12 -15 -21 -33 -21 -41 0 -7 -7 -24 -15 -37 -8 -12 -16
-40 -18 -61 -2 -38 -1 -39 68 -76 89 -48 111 -49 129 -6 46 107 58 148 48 163
-7 10 -151 84 -164 84 -4 0 -16 -12 -27 -26z"/>
<path d="M1754 8470 c-5 -5 -52 -31 -104 -58 -119 -61 -258 -135 -330 -174
-133 -73 -157 -87 -199 -109 -47 -24 -80 -79 -81 -131 0 -28 22 -39 35 -17 4
5 17 15 28 20 12 5 36 18 52 29 31 19 41 25 133 76 92 50 164 88 272 146 58
31 124 66 148 79 50 27 85 77 80 116 -3 29 -18 39 -34 23z"/>
<path d="M1983 8368 c-5 -7 -24 -48 -43 -90 -27 -65 -30 -80 -20 -93 16 -19
148 -85 170 -85 11 0 24 20 39 58 12 31 30 74 38 95 9 20 14 39 12 41 -12 12
-162 86 -173 86 -8 0 -18 -6 -23 -12z"/>
<path d="M6113 8243 c-14 -16 -29 -37 -35 -48 -13 -29 -32 -61 -46 -78 -16
-18 0 -37 87 -102 49 -37 67 -46 80 -38 14 9 43 50 57 83 4 8 13 22 20 30 26
30 26 64 2 87 -24 22 -126 93 -134 93 -3 0 -16 -12 -31 -27z"/>
<path d="M10363 8090 c-34 -14 -101 -85 -118 -126 -25 -60 -20 -81 35 -133 28
-26 50 -52 50 -56 0 -21 -217 -182 -300 -221 -27 -13 -70 -48 -70 -56 0 -13
36 -9 67 6 15 8 48 22 73 32 73 29 151 84 220 155 l65 67 30 -34 c29 -34 31
-34 53 -19 29 21 30 80 1 111 -19 21 -20 27 -10 93 23 148 -12 215 -96 181z
m18 -112 c20 -25 26 -88 8 -88 -7 0 -27 16 -45 36 -28 29 -32 39 -24 55 14 25
38 24 61 -3z" fill="#F5593C"/>
<path d="M5261 7813 c-28 -42 -51 -82 -51 -88 0 -15 136 -115 157 -115 27 0
37 10 74 75 48 83 51 91 31 114 -26 29 -122 91 -143 91 -11 0 -36 -27 -68 -77z"/>
<path d="M11017 7808 c-26 -40 -47 -80 -47 -90 0 -17 97 -98 145 -120 30 -14
23 -21 82 81 46 79 47 82 36 100 -15 25 -126 99 -149 100 -14 1 -33 -19 -67
-71z" fill="#F5593C"/>
<path d="M2218 7772 c-39 -43 -80 -123 -109 -214 -21 -66 -27 -254 -10 -287 6
-10 29 -26 53 -35 61 -26 98 -41 141 -60 21 -9 60 -16 87 -16 46 0 54 4 93 44
47 47 76 61 107 51 26 -8 27 -60 3 -95 -47 -68 -113 -108 -218 -135 -66 -16
-74 -16 -155 0 -47 9 -102 23 -122 31 -84 32 -125 47 -155 60 -76 33 -145 5
-248 -102 -103 -107 -165 -237 -165 -349 0 -58 3 -68 31 -100 17 -19 37 -35
43 -35 7 0 26 -6 42 -14 17 -8 101 -19 199 -26 94 -7 179 -17 189 -23 18 -9
18 -11 -9 -31 -16 -11 -37 -25 -47 -31 -9 -5 -55 -33 -100 -60 -98 -60 -240
-129 -318 -155 -58 -20 -211 -50 -249 -50 -61 1 -196 36 -250 66 -64 34 -143
118 -172 182 -28 60 -31 185 -6 263 24 80 47 184 47 218 0 35 -17 51 -26 24
-3 -10 -13 -36 -21 -58 -15 -39 -24 -62 -57 -138 -9 -21 -16 -44 -16 -52 0 -8
-6 -29 -14 -47 -49 -113 -40 -341 17 -450 98 -188 331 -272 617 -223 151 26
249 71 515 238 42 26 171 126 185 143 50 61 60 90 60 176 0 78 -2 88 -29 125
-16 22 -42 45 -57 51 -16 6 -99 12 -184 15 -135 3 -160 6 -197 25 -70 36 -97
86 -73 132 14 26 99 85 143 100 39 12 51 10 132 -25 146 -63 212 -79 340 -78
106 0 126 3 176 26 67 31 107 63 153 125 45 62 64 115 83 232 13 81 13 109 2
190 -19 144 -64 224 -172 302 -54 39 -80 54 -169 99 -39 20 -75 10 -110 -29z
m87 -228 c8 -9 13 -24 11 -33 -3 -9 -8 -28 -11 -43 -8 -32 -20 -37 -63 -26
-45 12 -49 31 -17 78 30 43 54 50 80 24z"/>
<path d="M1478 7777 c-26 -20 -98 -139 -98 -162 0 -7 34 -39 77 -70 82 -62 94
-63 121 -14 7 13 22 38 32 54 29 44 40 73 34 88 -4 12 -103 89 -140 110 -6 4
-18 1 -26 -6z" />
<path d="M9032 7774 c-34 -23 -72 -117 -75 -183 -2 -56 -2 -56 28 -59 65 -5
95 -13 95 -25 0 -7 -24 -30 -52 -51 -63 -45 -115 -110 -151 -187 -43 -92 -59
-149 -52 -183 3 -17 7 -42 8 -56 2 -26 9 -23 -133 -65 -25 -7 -68 -16 -95 -20
-55 -7 -72 3 -94 55 -35 81 -247 330 -281 330 -22 0 -103 -93 -134 -152 -52
-99 -68 -162 -69 -270 l-2 -100 35 -29 c19 -17 44 -32 55 -34 11 -2 50 -11 86
-19 36 -9 86 -16 112 -16 82 0 78 -13 -54 -148 -146 -148 -238 -223 -365 -298
-99 -58 -194 -79 -433 -95 -174 -11 -293 -29 -298 -46 -5 -15 64 -38 172 -57
59 -11 148 -16 255 -16 142 0 174 3 225 21 140 49 264 130 389 255 96 96 153
173 201 271 40 82 88 114 240 157 33 10 74 22 90 28 17 5 44 13 60 17 39 10
139 58 190 90 87 56 110 60 215 37 90 -20 185 -42 246 -57 29 -6 59 -9 67 -6
22 8 77 132 77 173 0 24 -12 56 -34 93 -18 31 -46 83 -61 116 -74 164 -115
230 -210 345 -78 94 -166 177 -200 190 -32 12 -26 13 -53 -6z m284 -496 c42
-45 102 -129 120 -165 3 -7 4 -19 1 -27 -5 -12 -11 -12 -44 0 -21 7 -51 13
-66 14 -15 0 -44 7 -63 15 l-36 15 4 62 c6 72 22 118 41 118 7 0 27 -15 43
-32z m-200 -53 c71 -71 70 -91 -6 -87 -97 5 -147 21 -154 47 -12 49 22 95 71
95 28 0 44 -10 89 -55z m-923 -153 c15 -17 15 -22 -2 -66 -10 -26 -24 -52 -32
-57 -22 -14 -59 -10 -66 7 -9 24 54 134 77 134 4 0 14 -8 23 -18z"/>
<path d="M6315 7731 c-18 -8 -144 -129 -206 -197 -61 -68 -147 -195 -153 -226
-8 -41 6 -91 37 -132 13 -17 27 -38 30 -46 4 -8 16 -28 27 -45 31 -47 34 -55
21 -68 -18 -18 -189 -15 -236 4 -22 10 -76 31 -120 49 -44 18 -94 39 -112 46
-50 22 -99 17 -161 -17 -196 -109 -322 -280 -322 -439 0 -71 25 -126 76 -165
30 -23 49 -27 152 -36 198 -17 217 -21 220 -45 2 -16 -11 -30 -55 -60 -72 -47
-222 -123 -245 -124 -10 0 -32 -6 -50 -14 -57 -24 -199 -46 -296 -46 -181 0
-318 47 -412 140 -54 54 -75 134 -60 228 12 70 17 87 69 212 17 41 34 90 37
108 10 51 -24 42 -63 -16 -94 -140 -153 -398 -128 -561 11 -74 18 -92 60 -156
43 -68 152 -148 240 -178 66 -22 201 -30 300 -19 86 10 204 38 220 53 5 5 18
9 28 9 10 0 31 6 45 14 15 8 59 29 97 47 142 67 278 161 326 227 54 74 74 204
41 272 -20 42 -81 69 -157 69 -27 1 -88 8 -135 16 -47 8 -98 15 -115 15 -49 1
-78 33 -77 85 0 53 26 91 97 144 110 82 164 82 335 -3 143 -71 246 -80 365
-31 17 7 48 19 70 28 380 145 663 296 696 372 5 11 13 27 17 35 36 63 41 90
19 90 -8 0 -34 -11 -58 -24 -24 -14 -66 -37 -94 -51 -27 -14 -84 -44 -125 -67
-72 -39 -79 -41 -170 -42 -85 0 -100 2 -147 27 -54 28 -163 131 -163 154 0 19
107 124 160 158 40 26 54 29 130 29 80 0 90 -3 173 -43 48 -24 90 -41 93 -38
17 16 -52 153 -97 193 -67 58 -171 89 -224 65z"/>
<path d="M4566 7698 c-8 -13 -17 -39 -21 -58 -6 -32 -2 -40 39 -83 91 -97 135
-206 136 -339 0 -53 3 -68 15 -68 8 0 17 12 21 28 3 15 10 43 15 62 20 80 9
203 -30 309 -16 44 -127 171 -150 171 -6 0 -17 -10 -25 -22z"/>
<path d="M1014 7583 c-3 -16 -13 -47 -21 -70 l-15 -42 58 -65 c90 -98 146
-219 165 -356 8 -63 8 -100 0 -144 -6 -34 -7 -64 -2 -69 11 -11 51 40 51 67 0
11 7 43 15 70 31 103 15 290 -38 421 -59 149 -195 268 -213 188z"/>
<path d="M12429 7533 c-107 -97 -169 -232 -169 -368 0 -77 2 -84 34 -129 46
-65 119 -116 165 -116 21 0 59 13 90 30 30 17 58 30 63 30 14 0 9 -47 -7 -60
-8 -7 -15 -17 -15 -22 0 -34 -231 -270 -357 -366 -45 -34 -85 -62 -89 -62 -4
0 -15 -6 -23 -14 -28 -24 -115 -68 -162 -82 -25 -8 -110 -18 -190 -23 -148 -9
-199 -21 -199 -44 0 -14 132 -47 185 -47 17 0 65 -7 108 -15 43 -8 109 -15
145 -15 64 0 70 2 143 53 190 130 308 252 416 432 31 52 113 226 113 240 0 9
4 24 10 34 5 10 16 53 25 96 18 85 12 130 -27 230 -42 106 -157 255 -197 255
-11 0 -39 -17 -62 -37z m21 -228 c0 -38 -21 -84 -42 -91 -25 -7 -28 -4 -34 38
-5 27 -1 40 21 66 22 26 30 30 41 21 8 -6 14 -21 14 -34z" fill="#F5593C"/>
<path d="M3720 7428 c-35 -13 -66 -43 -110 -109 -92 -133 -126 -299 -80 -388
25 -50 114 -128 154 -135 38 -7 96 6 127 28 32 22 59 21 59 -3 0 -37 -152
-220 -276 -331 -21 -19 -74 -60 -117 -90 -43 -30 -84 -60 -90 -66 -24 -21
-113 -69 -159 -86 -27 -9 -99 -19 -167 -23 -139 -9 -245 -26 -245 -40 -1 -18
55 -37 128 -46 39 -4 92 -12 118 -18 26 -6 98 -12 160 -13 l114 -3 88 58 c77
52 220 182 284 260 148 180 272 458 272 608 0 95 -54 219 -143 328 -57 70 -79
83 -117 69z m-12 -244 c3 -28 -31 -104 -46 -104 -14 0 -42 35 -42 53 0 11 10
35 21 54 28 45 63 43 67 -3z" fill="#F5593C"/>
<path d="M11244 7308 c-68 -74 -70 -119 -13 -244 33 -72 14 -87 -114 -86 -103
0 -186 32 -289 109 -47 36 -64 43 -100 43 -39 0 -48 -5 -75 -37 -128 -155
-383 -486 -467 -606 -48 -68 -70 -137 -48 -151 6 -3 20 6 32 21 96 123 498
533 522 533 11 0 45 -20 76 -43 31 -24 89 -59 127 -77 63 -30 79 -33 165 -34
102 -1 160 15 208 58 24 22 62 94 62 119 0 8 7 31 15 50 22 53 20 237 -3 302
-9 28 -21 56 -25 63 -14 21 -42 13 -73 -20z" fill="#F5593C"/>
<path d="M9948 7063 c-33 -35 -63 -123 -53 -160 15 -63 67 -87 131 -63 35 14
37 10 20 -32 -17 -40 -115 -142 -160 -166 -59 -31 -130 -52 -179 -52 -69 0
-56 -19 28 -41 103 -28 155 -11 238 75 70 73 93 119 118 239 20 95 -38 227
-99 227 -10 0 -30 -12 -44 -27z" fill="#F5593C"/>
</g>
</svg>
