<?xml version="1.0" standalone="no"?>
<!DOCTYPE svg PUBLIC "-//W3C//DTD SVG 20010904//EN"
 "http://www.w3.org/TR/2001/REC-SVG-20010904/DTD/svg10.dtd">
<svg version="1.0" xmlns="http://www.w3.org/2000/svg"
 width="639.000000pt" height="390.000000pt" viewBox="0 0 639.000000 390.000000"
 preserveAspectRatio="xMidYMid meet">

<g transform="translate(0.000000,390.000000) scale(0.100000,-0.100000)"
fill="#000000" stroke="none">
<path d="M2627 3833 c-36 -81 -67 -199 -67 -255 0 -51 27 -92 54 -82 17 6 43
66 52 117 8 44 -3 49 -17 7 -19 -53 -59 -31 -59 32 0 20 16 81 35 134 19 54
33 99 31 101 -2 2 -15 -23 -29 -54z" fill="#66615B"/>
<path d="M3735 3806 c-529 -194 -1025 -410 -1207 -525 -40 -26 -48 -37 -63
-86 -9 -31 -15 -63 -13 -70 2 -8 37 7 103 44 252 142 684 328 1283 553 45 17
56 26 76 66 29 58 40 92 29 92 -4 -1 -98 -34 -208 -74z" fill="#66615B"/>
<path d="M4797 3673 c-24 -62 -27 -79 -25 -193 1 -117 0 -128 -25 -176 -91
-177 -268 -264 -509 -249 -130 7 -168 -5 -240 -82 -77 -84 -93 -122 -93 -233
0 -91 2 -100 37 -171 22 -44 63 -104 99 -143 34 -37 60 -68 58 -69 -44 -30
-234 -88 -304 -93 -78 -6 -123 10 -157 57 -16 21 -17 32 -9 69 5 25 8 46 6 48
-6 7 -60 -26 -80 -49 -39 -43 -173 -136 -256 -177 -141 -68 -246 -95 -374 -96
-104 -1 -113 1 -163 28 -59 33 -92 72 -92 108 0 48 17 55 140 62 142 7 213 19
326 52 182 52 335 133 374 196 25 41 63 204 55 235 -13 55 -123 146 -215 178
-55 19 -152 21 -211 4 -88 -25 -296 -268 -411 -478 -10 -18 -25 -31 -36 -31
-45 0 -150 41 -188 74 -42 36 -93 122 -113 191 -7 22 -19 59 -27 83 -15 40
-17 42 -58 42 -81 0 -228 -107 -267 -194 -31 -71 -42 -173 -29 -278 6 -51 13
-102 16 -114 5 -18 -4 -23 -83 -47 -111 -33 -174 -49 -177 -45 -2 2 -13 26
-26 53 -48 100 -157 178 -226 161 -75 -19 -134 -128 -134 -247 0 -47 5 -63 25
-88 37 -43 79 -53 208 -49 l112 3 3 -29 c3 -22 -5 -38 -35 -68 -57 -59 -242
-179 -373 -242 -279 -134 -468 -141 -564 -22 -27 33 -31 47 -34 111 -5 89 16
167 88 325 57 127 65 150 51 150 -17 0 -119 -214 -153 -323 -29 -90 -33 -115
-33 -212 0 -96 3 -116 24 -155 49 -94 107 -131 217 -138 161 -10 421 102 670
289 50 38 100 81 110 96 10 15 30 73 44 128 25 98 26 100 60 109 19 5 83 24
141 42 124 40 145 42 154 13 11 -33 116 -133 166 -157 52 -25 135 -29 164 -8
34 25 48 250 19 312 -36 75 -162 95 -315 48 -25 -7 -57 80 -74 199 -6 42 -3
54 19 87 34 52 153 130 199 130 38 0 39 -1 73 -110 49 -157 137 -244 278 -275
24 -5 27 -9 21 -28 -4 -12 -9 -62 -12 -112 -4 -83 -3 -93 19 -125 60 -88 223
-123 387 -82 166 43 332 129 465 244 l70 60 11 -46 c7 -26 23 -58 36 -72 98
-105 231 -69 821 220 142 69 262 126 268 126 10 0 90 151 90 171 0 6 -24 -3
-52 -19 -29 -17 -118 -58 -198 -92 -80 -34 -151 -66 -157 -72 -7 -6 -41 -13
-76 -15 -85 -7 -123 11 -212 102 -83 84 -134 166 -138 219 -2 36 1 41 48 70
50 31 50 31 176 28 90 -2 148 2 200 14 201 44 298 140 369 364 15 47 30 78 33
70 6 -18 77 -658 112 -1016 25 -249 33 -483 20 -559 -7 -38 -6 -39 9 -18 18
24 53 102 67 148 23 73 3 427 -46 845 -65 551 -77 673 -68 693 9 19 11 18 32
-16 12 -20 26 -37 31 -37 9 0 -11 96 -37 175 -22 69 -74 185 -83 185 -4 0 -19
-30 -33 -67z m-1463 -873 c37 -19 90 -54 118 -79 47 -42 49 -46 32 -59 -62
-46 -243 -117 -400 -156 -59 -15 -302 -41 -310 -33 -11 10 142 220 197 272 88
81 126 97 219 92 61 -3 89 -10 144 -37z m-1737 -596 c20 -15 31 -30 26 -35
-13 -13 -153 7 -171 24 -13 13 -11 17 14 31 38 21 87 14 131 -20z m782 -82
c73 -54 -4 -73 -99 -24 -30 15 -56 33 -58 41 -7 22 123 9 157 -17z" fill="#F5593D"/>
<path d="M994 3719 c-6 -8 -21 -35 -32 -62 -20 -45 -21 -56 -11 -220 5 -94 16
-255 24 -357 8 -102 19 -270 25 -375 6 -104 15 -251 20 -325 17 -247 22 -474
12 -555 -5 -44 -8 -82 -6 -84 6 -7 56 115 70 174 34 141 28 349 -36 1194 -12
162 -15 253 -9 269 11 30 22 21 38 -30 7 -20 18 -39 26 -42 12 -4 15 6 15 54
0 86 -18 149 -75 267 -39 83 -53 103 -61 92z" fill="#66615B"/>
<path d="M4273 3684 c-133 -22 -146 -30 -175 -110 -14 -38 -25 -70 -24 -72 2
-1 37 7 78 17 42 11 109 23 149 26 l74 7 -40 -29 c-22 -16 -89 -62 -148 -102
-59 -41 -106 -76 -103 -78 3 -3 35 6 73 20 37 14 86 31 108 38 22 6 48 17 58
24 49 34 204 255 189 269 -10 10 -155 4 -239 -10z" fill="#66615B"/>
<path d="M1552 3628 c-16 -20 -40 -110 -53 -198 -6 -45 -14 -79 -16 -76 -3 3
-17 40 -32 84 -32 97 -64 144 -114 173 -48 26 -58 18 -65 -49 -4 -43 -1 -51
19 -66 13 -9 40 -21 60 -26 42 -12 66 -53 94 -161 30 -115 35 -108 65 89 11
74 22 138 25 143 12 18 54 9 74 -17 19 -24 20 -25 30 -5 6 11 11 33 11 49 0
51 -70 94 -98 60z" fill="#66615B"/>
<path d="M2045 3496 c-40 -18 -61 -43 -80 -95 -27 -76 -21 -104 30 -149 l45
-40 -52 -48 c-82 -73 -252 -197 -487 -353 -118 -79 -239 -162 -270 -184 -30
-23 -60 -45 -65 -49 -6 -4 -8 -10 -5 -13 8 -7 308 165 459 263 159 103 271
192 368 291 l82 85 44 -43 43 -43 12 33 c16 46 15 51 -24 97 -35 40 -36 43
-25 83 13 48 5 123 -16 157 -17 25 -19 26 -59 8z m24 -95 c13 -24 26 -101 17
-101 -14 0 -94 60 -99 74 -7 17 28 46 55 46 9 0 22 -8 27 -19z" fill="#F5593D"/>
<path d="M5146 3405 c-9 -49 -19 -130 -22 -180 -5 -79 -3 -94 15 -122 37 -59
66 -34 77 66 4 41 3 43 -7 19 -13 -33 -20 -34 -42 -10 -26 29 -30 90 -12 189
9 50 15 100 13 110 -2 10 -12 -22 -22 -72z" fill="#66615B"/>
<path d="M3480 3360 c-16 -16 -60 -91 -60 -103 0 -3 36 -32 79 -66 l80 -61 33
55 c18 30 37 55 43 55 5 0 38 -28 73 -62 l63 -63 29 35 c16 19 37 50 47 68
l18 34 -69 64 c-38 36 -74 63 -80 61 -6 -2 -24 -24 -41 -50 -16 -26 -34 -47
-39 -47 -4 0 -37 23 -72 50 -35 28 -68 50 -74 50 -5 0 -19 -9 -30 -20z" fill="#F5593D"/>
<path d="M2687 3045 c-37 -101 -47 -143 -47 -205 0 -61 11 -80 47 -80 19 0 25
10 43 67 20 65 20 102 1 49 -21 -54 -67 -19 -64 49 1 23 13 70 28 104 14 35
24 68 22 74 -2 6 -15 -20 -30 -58z" fill="#66615B"/>
<path d="M5498 3076 c-9 -6 -111 -63 -227 -126 -202 -110 -212 -117 -223 -153
-6 -20 -8 -40 -5 -43 6 -6 258 129 389 209 66 40 94 76 86 111 -2 12 -6 12
-20 2z" fill="#66615B"/>
<path d="M1776 2674 c-37 -146 -31 -234 15 -234 23 0 38 33 45 99 4 42 3 43
-7 18 -7 -18 -17 -27 -28 -25 -21 4 -27 80 -11 151 16 75 5 68 -14 -9z" fill="#F5593D"/>
<path d="M5391 2489 c-86 -62 -129 -218 -81 -296 35 -58 59 -66 160 -59 103 9
149 -2 180 -41 38 -49 28 -73 -70 -166 -242 -230 -486 -367 -656 -367 -66 0
-92 10 -134 51 -39 40 -58 82 -71 158 -16 98 8 204 97 426 7 18 6 18 -9 7 -17
-14 -83 -176 -111 -271 -56 -191 -31 -374 63 -469 51 -51 88 -66 157 -65 162
2 370 117 612 339 151 139 192 226 192 409 0 94 -2 105 -34 172 -57 118 -151
203 -224 203 -16 0 -47 -13 -71 -31z m99 -147 c18 -11 36 -24 37 -29 6 -16
-106 -27 -140 -14 -33 13 -34 25 -5 45 30 21 66 20 108 -2z" fill="#66615B"/>
<path d="M4134 2020 c-32 -13 -99 -95 -119 -146 l-17 -46 36 -37 37 -38 -59
-59 c-42 -42 -65 -76 -80 -117 -28 -74 -28 -93 3 -113 32 -21 164 -15 240 11
90 30 209 93 270 142 56 46 111 111 101 121 -3 2 -32 -17 -66 -43 -69 -53
-200 -117 -288 -139 -78 -21 -202 -21 -228 -1 -18 14 -17 17 42 73 33 31 110
88 171 125 82 50 114 76 123 98 16 38 9 45 -24 24 -36 -24 -108 -44 -138 -38
-14 3 -41 18 -60 34 l-33 29 25 20 c36 28 59 25 74 -11 l13 -30 16 24 c29 45
31 72 5 100 -18 20 -28 24 -44 17z" fill="#66615B"/>
<path d="M3576 1862 c-15 -25 -75 -193 -86 -244 -10 -46 -10 -63 0 -87 7 -17
19 -31 26 -31 14 0 56 74 68 120 7 24 6 24 -9 -2 -32 -56 -63 -22 -50 55 4 23
21 75 37 115 16 41 27 76 25 79 -3 2 -8 0 -11 -5z" fill="#66615B"/>
<path d="M3179 1795 c-14 -7 -146 -61 -295 -120 -148 -58 -289 -114 -314 -123
-35 -15 -47 -25 -54 -50 -5 -18 -6 -35 -3 -38 3 -4 155 53 337 126 335 134
348 141 365 198 7 25 0 27 -36 7z" fill="#66615B"/>
<path d="M96 1192 c-3 -5 -8 -32 -12 -60 -6 -51 -6 -52 18 -52 29 0 54 24 63
61 5 21 2 30 -16 43 -26 18 -45 20 -53 8z m49 -51 c8 -14 -28 -31 -44 -21 -8
4 -10 13 -7 19 9 13 43 15 51 2z" fill="#66615B"/>
<path d="M1685 1121 c-33 -21 -76 -48 -95 -59 -32 -20 -33 -22 -11 -22 50 0
190 94 169 115 -2 2 -31 -13 -63 -34z" fill="#66615B"/>
<path d="M5201 1124 c-23 -29 -29 -56 -9 -36 17 17 48 15 48 -2 0 -20 -28 -27
-77 -21 -32 4 -42 1 -47 -11 -14 -37 33 -55 88 -34 36 13 75 92 56 114 -18 23
-36 20 -59 -10z" fill="#66615B"/>
<path d="M1097 1088 c-37 -28 -66 -53 -63 -55 7 -7 100 43 120 65 39 44 8 38
-57 -10z" fill="#66615B"/>
<path d="M4775 1077 c-109 -44 -131 -56 -133 -75 l-4 -23 39 19 c21 11 81 36
135 56 68 26 97 43 101 57 3 10 2 19 -1 19 -4 0 -65 -24 -137 -53z" fill="#66615B"/>
<path d="M545 1090 c-18 -35 -20 -36 -63 -10 -18 11 -36 20 -40 20 -8 0 -42
-57 -42 -70 0 -15 73 -55 78 -42 2 6 12 22 22 34 l19 23 40 -22 c50 -29 55
-29 69 2 18 40 15 54 -20 75 -43 26 -45 25 -63 -10z" fill="#66615B"/>
<path d="M2493 1010 c-141 -68 -183 -93 -183 -107 0 -16 26 -6 173 65 166 81
207 105 207 124 0 14 -8 10 -197 -82z" fill="#66615B"/>
<path d="M5584 1072 c-6 -4 -16 -16 -22 -27 -10 -19 -8 -20 29 -17 48 5 51
-11 7 -35 -26 -13 -29 -18 -15 -21 22 -5 102 42 111 64 8 20 11 18 -40 32 -48
14 -55 14 -70 4z" fill="#66615B"/>
<path d="M2560 966 c-58 -28 -138 -66 -178 -84 -66 -29 -94 -53 -79 -69 10 -9
357 164 363 182 4 9 5 17 3 19 -2 2 -51 -20 -109 -48z" fill="#66615B"/>
<path d="M114 988 c-11 -32 -7 -123 11 -274 8 -71 15 -163 15 -204 1 -57 3
-71 11 -57 21 36 21 126 -1 337 -12 118 -23 216 -25 218 -2 2 -7 -7 -11 -20z" fill="#66615B"/>
<path d="M3860 910 c-325 -120 -603 -235 -615 -254 -5 -8 -6 -18 -2 -22 3 -4
111 36 239 89 128 52 315 126 416 163 122 45 187 74 193 87 6 10 9 20 7 22 -2
1 -109 -37 -238 -85z" fill="#66615B"/>
<path d="M1671 939 c-9 -30 -9 -44 0 -61 13 -25 6 -189 -11 -248 -13 -47 -39
-80 -47 -61 -26 62 -292 371 -320 371 -16 0 -27 -62 -19 -102 9 -44 34 -68 70
-68 40 -1 46 -6 142 -125 117 -145 116 -141 63 -187 -24 -21 -51 -40 -60 -43
-17 -6 -29 -34 -29 -71 0 -21 3 -21 93 -17 50 3 97 10 102 15 13 12 10 97 -5
142 -10 30 -8 46 13 113 14 43 28 105 32 138 4 33 15 86 26 118 25 74 24 79
-10 104 l-28 22 -12 -40z m-43 -502 c3 -12 -4 -17 -22 -17 -28 0 -33 9 -14 28
15 15 32 10 36 -11z" fill="#66615B"/>
<path d="M5398 975 c-18 -31 -16 -96 11 -330 17 -143 33 -283 36 -311 5 -40 3
-53 -12 -66 -31 -27 -77 -46 -140 -57 -52 -10 -68 -9 -102 5 -73 29 -99 91
-65 155 8 17 14 33 11 35 -17 18 -70 -134 -61 -174 18 -73 73 -112 160 -112
76 0 126 16 173 57 42 35 61 90 61 173 0 43 5 47 34 25 50 -37 145 -6 187 61
l21 35 27 -24 c71 -67 130 -71 265 -17 108 42 187 60 277 60 l77 0 16 40 c9
22 16 42 16 44 0 1 -51 6 -112 9 -96 5 -254 30 -265 41 -2 2 13 21 34 42 21
21 53 60 70 87 32 45 76 77 90 64 3 -4 9 -24 13 -44 l7 -38 17 57 c18 59 14
106 -10 115 -19 7 -61 -29 -110 -96 -59 -82 -81 -96 -210 -136 -97 -31 -116
-40 -124 -61 -19 -48 -15 -51 73 -57 45 -3 102 -12 127 -20 l45 -14 -40 -18
c-22 -10 -65 -20 -96 -23 -47 -3 -68 1 -119 24 l-63 28 -22 -26 c-75 -87 -190
-80 -222 14 -11 34 -28 144 -56 363 -7 55 -15 96 -19 90z" fill="#66615B"/>
<path d="M5154 934 c-5 -27 4 -108 30 -264 20 -124 37 -238 37 -255 1 -67 18
11 18 85 1 71 -58 452 -72 466 -3 3 -9 -11 -13 -32z" fill="#66615B"/>
<path d="M2208 955 c-17 -30 -17 -89 2 -229 11 -86 24 -195 29 -243 8 -78 12
-90 37 -111 40 -35 132 -28 201 14 l50 31 37 -34 c49 -45 73 -40 181 41 8 6
22 2 41 -11 16 -11 52 -29 81 -39 50 -18 52 -18 72 0 19 18 21 18 46 -2 14
-12 49 -28 78 -38 50 -17 51 -16 64 3 l14 21 52 -20 c70 -27 201 -34 382 -18
153 13 204 23 420 85 110 32 148 38 250 41 127 4 133 6 149 60 6 21 3 22 -81
26 -86 5 -119 14 -303 84 -28 11 -56 15 -73 10 -27 -6 -97 -61 -97 -76 0 -5
32 -6 70 -3 53 4 86 1 130 -12 33 -10 60 -21 60 -25 0 -4 -44 -19 -97 -33
-199 -53 -431 -81 -620 -75 -144 4 -199 22 -281 91 -62 52 -85 49 -118 -14
l-26 -51 -44 5 c-25 2 -66 18 -93 34 l-47 30 -42 -38 c-52 -45 -86 -55 -118
-34 -27 18 -30 32 -9 59 33 44 10 70 -83 96 -48 12 -112 -1 -112 -25 0 -7 -3
-27 -6 -44 -6 -30 -5 -31 29 -31 20 0 39 -5 42 -10 9 -15 -44 -33 -103 -34
-43 0 -57 4 -77 25 -26 26 -27 27 -69 399 -6 58 -14 101 -18 95z m852 -486
c12 -16 20 -33 17 -36 -10 -9 -72 32 -75 50 -6 29 35 20 58 -14z" fill="#66615B"/>
<path d="M4856 935 c-3 -9 -14 -15 -23 -13 -10 2 -26 -5 -36 -15 -18 -18 -43
-14 -31 5 4 7 2 8 -4 4 -7 -4 -12 -20 -12 -37 0 -32 15 -37 53 -17 12 6 29 14
36 18 8 4 18 19 23 35 8 32 4 46 -6 20z" fill="#66615B"/>
<path d="M5833 880 c-116 -56 -143 -73 -143 -89 0 -19 14 -14 140 49 77 39
144 79 150 90 6 11 7 20 3 19 -4 0 -72 -31 -150 -69z" fill="#66615B"/>
<path d="M865 910 c-21 -40 -20 -45 17 -68 37 -24 51 -18 67 28 9 27 7 32 -19
50 -37 27 -47 25 -65 -10z" fill="#66615B"/>
<path d="M1062 903 l-20 -38 31 -26 c31 -26 31 -26 17 -69 -13 -41 -13 -43 9
-61 34 -27 49 -24 68 16 l17 35 -34 28 c-33 28 -33 28 -16 55 23 34 18 54 -21
78 l-32 20 -19 -38z" fill="#66615B"/>
<path d="M482 878 c-29 -48 -39 -141 -18 -173 28 -43 106 -30 106 17 0 28 19
21 26 -9 9 -35 -4 -54 -57 -80 -83 -41 -82 -41 -118 32 -18 37 -40 69 -49 72
-25 10 -59 -44 -72 -114 -11 -55 -10 -66 4 -88 17 -26 70 -41 105 -30 31 10
26 -11 -16 -67 -41 -53 -105 -98 -166 -118 -39 -12 -158 -9 -207 5 -17 5 -22
4 -15 -3 15 -15 144 -59 198 -67 41 -6 53 -4 87 19 49 32 52 32 44 -2 -8 -38
92 146 107 198 9 29 20 45 38 52 98 37 127 73 137 177 9 82 -1 121 -42 169
-43 50 -66 53 -92 10z m45 -69 c16 -16 5 -39 -17 -39 -23 0 -34 16 -26 35 6
18 28 19 43 4z m-163 -168 c9 -14 -4 -41 -19 -41 -21 0 -28 19 -15 35 14 17
26 19 34 6z" fill="#66615B"/>
<path d="M1968 864 c-76 -40 -108 -67 -94 -81 5 -6 179 88 188 101 10 14 10
26 1 26 -5 -1 -47 -21 -95 -46z" fill="#66615B"/>
<path d="M2816 824 c-24 -23 -19 -34 14 -34 35 0 39 -16 8 -31 -19 -8 -15 -9
17 -5 27 4 48 14 64 33 l24 27 -49 13 c-62 16 -60 16 -78 -3z" fill="#F5593D"/>
<path d="M4954 776 c-5 -28 3 -69 31 -166 20 -71 34 -134 30 -140 -10 -17 -61
-11 -87 10 -28 22 -48 84 -72 224 -9 49 -18 91 -20 94 -3 2 -8 -8 -12 -22 -7
-28 -4 -53 17 -193 l13 -83 -28 -29 c-49 -51 -110 -50 -137 1 -6 11 -17 68
-25 126 -8 58 -16 107 -18 110 -3 2 -8 -18 -12 -46 -6 -48 -8 -51 -49 -66 -23
-9 -51 -27 -63 -39 -20 -22 -67 -116 -60 -122 1 -1 27 -9 56 -18 l52 -15 30
36 c34 42 37 52 13 52 -23 0 -83 22 -83 31 0 4 16 10 35 13 19 4 41 16 49 27
17 25 28 11 25 -34 -1 -17 1 -39 4 -47 3 -8 8 -31 11 -51 4 -20 18 -49 32 -64
21 -23 31 -27 61 -22 45 8 71 31 96 87 l20 45 10 -30 c29 -89 128 -104 156
-24 20 58 13 139 -24 263 -19 66 -37 121 -39 124 -3 2 -8 -12 -12 -32z" fill="#F5593D"/>
<path d="M825 700 c-4 -6 -13 -9 -20 -6 -8 3 -19 -2 -26 -10 -7 -8 -20 -12
-30 -9 -15 5 -19 1 -19 -19 0 -14 5 -26 12 -26 26 0 88 35 94 53 7 22 -1 34
-11 17z" fill="#66615B"/>
<path d="M956 688 c-19 -30 -46 -133 -46 -178 0 -34 -2 -36 -62 -59 -127 -49
-185 -83 -282 -166 -125 -107 -177 -123 -223 -67 l-23 27 0 -50 c0 -66 20 -95
66 -95 48 0 81 19 171 100 85 76 160 120 294 169 l86 32 38 -25 c32 -22 49
-26 107 -26 l69 0 15 36 c25 60 28 124 7 163 -24 46 -40 49 -46 9 -3 -22 2
-45 17 -70 11 -20 17 -40 12 -45 -11 -11 -116 -7 -128 5 -7 7 -5 32 7 78 20
79 15 127 -16 160 -28 30 -44 30 -63 2z m48 -101 c22 -30 17 -49 -21 -74 -19
-13 -23 -12 -31 4 -20 39 -22 71 -6 88 20 20 32 16 58 -18z" fill="#66615B"/>
<path d="M1957 622 c-21 -23 -33 -57 -41 -118 -6 -41 -4 -54 12 -74 24 -29 65
-22 85 17 8 15 17 21 21 15 18 -29 -62 -146 -132 -191 -68 -43 -139 -58 -203
-42 -28 7 -52 11 -55 9 -6 -7 131 -55 179 -64 69 -12 141 57 203 192 20 45 27
76 28 130 1 63 -2 74 -27 107 -31 41 -46 45 -70 19z m32 -86 c9 -10 8 -16 -4
-26 -19 -16 -41 1 -32 24 8 20 21 20 36 2z" fill="#66615B"/>
<path d="M6221 308 c-19 -31 -20 -34 -3 -46 44 -34 51 -34 72 0 25 41 25 43
-2 62 -32 23 -43 20 -67 -16z" fill="#66615B"/>
<path d="M4131 234 c-12 -15 -21 -33 -21 -40 0 -12 58 -50 64 -42 1 2 12 16
24 32 28 37 28 38 -7 59 -37 22 -36 22 -60 -9z" fill="#66615B"/>
<path d="M2682 213 c-27 -41 -25 -52 16 -76 l31 -17 17 30 c22 37 26 37 69 4
38 -29 48 -26 71 18 16 30 15 31 -13 54 -36 30 -47 30 -61 -1 -15 -31 -35 -32
-75 -1 l-32 25 -23 -36z" fill="#66615B"/>
<path d="M4600 217 c-36 -18 -90 -43 -120 -56 -48 -22 -52 -25 -29 -28 30 -5
154 40 182 65 16 15 43 53 35 51 -2 0 -32 -15 -68 -32z" fill="#66615B"/>
<path d="M5689 204 l-22 -37 24 -18 c35 -27 56 -23 74 11 18 35 15 45 -25 65
-28 14 -29 14 -51 -21z" fill="#66615B"/>
<path d="M3160 193 c-88 -33 -122 -54 -101 -61 14 -5 215 74 219 86 6 18 -15
14 -118 -25z" fill="#66615B"/>
<path d="M6230 154 c-52 -18 -110 -38 -127 -44 -30 -10 -61 -45 -50 -56 8 -8
262 88 275 104 13 18 16 33 5 31 -5 -1 -51 -17 -103 -35z" fill="#66615B"/>
<path d="M5372 73 c-67 -23 -94 -44 -79 -60 8 -8 150 45 159 60 21 33 14 33
-80 0z" fill="#66615B"/>
</g>
</svg>
