<?xml version="1.0" standalone="no"?>
<!DOCTYPE svg PUBLIC "-//W3C//DTD SVG 20010904//EN"
 "http://www.w3.org/TR/2001/REC-SVG-20010904/DTD/svg10.dtd">
<svg version="1.0" xmlns="http://www.w3.org/2000/svg"
 width="900.000000pt" height="369.000000pt" viewBox="0 0 900.000000 369.000000"
 preserveAspectRatio="xMidYMid meet">
<metadata>
Created by potrace 1.10, written by Peter Selinger 2001-2011
</metadata>
<g transform="translate(0.000000,369.000000) scale(0.100000,-0.100000)"
fill="#000000" stroke="none">
<path d="M3413 3318 c-14 -18 -29 -63 -44 -131 -10 -46 -10 -71 -1 -116 7 -31
12 -79 12 -107 0 -27 7 -96 15 -154 8 -58 15 -134 15 -170 0 -36 7 -108 15
-160 8 -52 15 -138 15 -190 0 -52 7 -149 15 -215 8 -66 15 -145 15 -175 0 -30
7 -93 15 -140 8 -47 15 -116 15 -155 0 -87 33 -283 59 -352 23 -63 21 -66 -74
-84 -71 -13 -126 -35 -180 -69 -16 -11 -37 -23 -45 -27 -14 -6 -119 -85 -164
-123 -57 -50 -249 -198 -278 -215 -9 -5 -38 -21 -65 -33 -26 -13 -61 -30 -76
-38 -44 -21 -110 -18 -150 9 -65 42 -72 61 -72 174 1 66 5 107 13 115 7 7 12
21 12 31 0 11 14 36 30 57 34 43 39 75 13 84 -30 11 -63 32 -92 60 -41 40 -57
34 -88 -34 -15 -33 -35 -62 -44 -65 -11 -4 -39 11 -77 40 -52 40 -63 45 -81
36 -12 -7 -21 -18 -21 -25 0 -7 -14 -32 -31 -55 l-30 -42 37 -35 c21 -19 42
-34 47 -34 5 0 22 -11 39 -25 16 -14 35 -25 41 -25 11 0 47 66 47 85 0 5 9 19
21 31 l20 22 49 -32 c59 -37 67 -60 46 -125 -50 -155 40 -354 177 -391 39 -10
59 -10 110 0 91 20 165 67 367 235 126 105 222 175 267 194 11 6 24 15 28 20
3 6 16 11 28 11 13 0 34 8 47 17 21 15 47 18 150 17 138 0 164 -8 282 -88 47
-31 58 -17 58 72 0 68 -3 81 -22 100 -26 23 -105 61 -129 62 -43 0 -128 125
-156 230 -37 139 -24 173 33 83 39 -62 61 -83 109 -109 43 -23 129 -44 178
-44 74 0 233 42 259 68 7 7 17 12 24 12 6 0 17 7 24 15 14 17 60 21 60 5 0 -6
-4 -18 -9 -28 -48 -98 -66 -165 -82 -294 -10 -84 -10 -121 -1 -171 7 -35 12
-74 12 -85 0 -12 16 -55 35 -96 26 -56 49 -87 96 -130 35 -31 69 -56 76 -56 8
0 24 -7 36 -15 49 -32 274 -29 367 6 37 13 161 73 195 93 153 90 323 231 395
325 38 50 50 61 66 61 12 0 13 -10 9 -47 -7 -60 14 -160 49 -235 34 -72 121
-163 176 -184 8 -3 29 -13 45 -22 43 -23 298 -21 382 3 116 34 246 89 318 136
17 10 39 23 50 29 51 26 274 192 326 242 21 21 45 62 60 99 21 57 24 79 24
205 -1 116 -4 146 -18 167 -9 15 -17 33 -17 41 0 37 -105 162 -160 191 -39 20
-105 19 -137 -2 -38 -25 -92 -85 -93 -103 0 -8 -7 -24 -15 -34 -10 -14 -15
-45 -15 -101 0 -75 2 -83 29 -113 17 -17 31 -32 33 -33 2 -1 60 -4 129 -8 117
-7 128 -9 162 -35 40 -31 56 -69 40 -95 -22 -35 -247 -210 -313 -244 -8 -4
-28 -16 -45 -26 -54 -35 -216 -111 -260 -122 -16 -4 -43 -12 -60 -18 -66 -22
-193 -43 -240 -39 -61 5 -140 25 -178 44 -16 8 -34 14 -41 14 -7 0 -38 24 -68
53 -79 75 -117 159 -125 281 -8 130 25 185 48 79 19 -86 23 -100 45 -134 97
-155 281 -153 529 6 72 46 210 181 225 220 6 15 13 61 17 102 10 124 -22 218
-98 289 -41 37 -195 154 -204 154 -4 0 -32 20 -63 43 -31 24 -64 48 -73 53
-16 8 -71 52 -120 95 -12 10 -26 19 -31 19 -4 0 -8 10 -8 21 0 19 4 21 44 15
26 -4 47 -3 50 3 7 11 -28 51 -45 51 -10 0 -48 18 -89 41 -8 5 -22 12 -30 15
-8 3 -29 12 -47 20 -17 8 -36 14 -42 14 -6 0 -11 11 -11 24 0 18 12 31 46 53
26 15 54 33 63 38 9 6 43 28 76 51 34 22 67 43 75 47 8 4 29 16 45 27 17 11
39 24 50 30 11 6 34 19 50 30 17 11 39 24 50 30 11 6 47 26 80 44 137 77 567
286 588 286 7 0 17 4 22 9 6 5 35 19 65 31 30 12 69 28 85 35 17 7 48 20 70
28 22 8 56 20 75 27 52 19 145 34 163 27 35 -13 19 -65 -61 -201 -93 -156
-152 -276 -152 -311 0 -23 35 -18 77 11 21 14 76 44 123 66 47 22 135 64 195
93 61 29 146 69 190 90 44 20 107 50 141 66 33 16 67 29 75 29 22 0 69 48 69
71 0 27 -27 35 -49 15 -10 -9 -21 -16 -25 -16 -21 0 -673 -317 -682 -331 -9
-15 -34 -10 -34 6 0 13 54 92 108 160 28 35 74 122 84 158 6 23 13 83 15 133
4 87 3 93 -19 108 -12 9 -35 16 -50 16 -28 0 -115 -21 -158 -38 -14 -5 -45
-18 -70 -27 -43 -17 -68 -27 -142 -59 -62 -26 -173 -78 -188 -87 -8 -5 -22
-12 -30 -15 -49 -18 -414 -206 -525 -270 -22 -12 -62 -35 -90 -49 -27 -14 -63
-34 -80 -45 -16 -11 -39 -24 -50 -30 -11 -6 -33 -19 -50 -30 -16 -11 -40 -25
-52 -31 -13 -7 -23 -16 -23 -21 0 -4 -5 -8 -11 -8 -6 0 -37 -20 -70 -46 -44
-34 -65 -59 -84 -100 -43 -93 -52 -75 -57 106 l-3 125 65 6 c72 6 96 14 104
34 8 23 -10 27 -97 24 l-82 -4 -6 105 c-4 58 -12 132 -18 164 -6 33 -11 82
-11 110 -1 28 -7 78 -15 111 -8 33 -15 81 -15 106 0 51 -16 106 -36 128 -15
16 -20 6 -49 -90 -14 -50 -15 -76 -5 -219 6 -90 13 -166 15 -171 11 -17 23
-234 14 -245 -5 -7 -31 -12 -57 -12 -96 0 -523 -21 -530 -26 -11 -7 -459 -34
-692 -41 -162 -6 -194 -4 -255 12 -110 29 -157 72 -122 111 21 23 91 57 197
97 220 82 290 136 403 313 34 52 96 122 109 122 17 0 45 -35 53 -65 4 -16 11
-64 14 -105 5 -60 9 -75 23 -78 12 -2 19 5 23 25 3 15 10 42 15 59 24 75 1
250 -39 298 -19 23 -61 20 -93 -7 -24 -19 -99 -114 -155 -197 -61 -89 -161
-160 -303 -214 -25 -10 -58 -24 -73 -32 -16 -8 -37 -14 -47 -14 -9 0 -23 -7
-30 -15 -7 -8 -18 -15 -25 -15 -6 0 -28 -17 -49 -37 -100 -101 -151 -246 -112
-322 37 -70 179 -89 539 -72 138 6 304 16 367 22 63 6 171 15 240 20 69 4 154
13 190 18 36 6 92 11 124 11 33 0 82 6 110 14 74 21 137 37 168 43 35 7 36 0
41 -187 3 -80 10 -203 16 -275 34 -410 52 -767 38 -805 -15 -45 -369 -380
-401 -380 -3 0 -24 -13 -48 -29 -60 -40 -158 -91 -175 -91 -8 0 -27 -6 -41
-14 -43 -22 -122 -40 -195 -44 -141 -8 -277 71 -343 199 -26 51 -28 62 -28
189 -1 128 17 247 44 301 5 9 12 33 15 53 6 31 41 73 52 62 5 -4 -22 -103 -38
-141 -7 -19 -12 -83 -13 -175 0 -160 6 -183 67 -248 27 -28 37 -32 84 -32 50
0 76 8 171 54 73 36 95 48 155 88 32 21 61 38 64 38 3 0 22 12 42 28 20 15 44
32 53 37 73 44 272 189 321 234 53 48 70 96 70 192 -1 83 -2 90 -36 141 -41
61 -81 89 -252 178 -44 23 -93 50 -110 61 -16 10 -39 23 -50 29 -31 15 -60 34
-104 68 -31 24 -23 55 11 47 27 -6 58 10 43 23 -6 4 -30 17 -55 27 -45 18 -96
42 -173 81 -23 12 -45 20 -49 17 -5 -2 -8 -40 -8 -83 0 -79 0 -79 35 -103 19
-13 68 -54 109 -91 113 -101 190 -155 306 -214 58 -30 126 -66 152 -80 57 -33
128 -98 128 -117 0 -15 -76 -80 -145 -123 -22 -14 -42 -28 -45 -32 -3 -5 -48
-37 -101 -71 -132 -88 -132 -88 -154 -99 -11 -6 -33 -19 -50 -29 -62 -40 -232
-121 -275 -131 -101 -24 -168 38 -157 145 15 136 28 219 37 235 6 10 10 31 10
46 0 19 16 42 58 84 41 40 64 74 80 114 41 107 22 133 -45 63 -81 -87 -185
-155 -316 -211 -53 -22 -144 -21 -200 4 -59 26 -125 101 -170 192 -53 110 -74
175 -61 195 10 17 91 60 154 82 44 16 191 40 247 41 53 0 163 -28 185 -47 17
-15 58 -10 58 7 0 21 -88 85 -160 117 -75 33 -197 47 -277 33 -193 -34 -303
-163 -290 -341 7 -106 34 -178 92 -255 49 -64 -2 -73 -65 -11 -85 84 -126 245
-150 592 -6 88 -17 228 -26 310 -8 83 -14 168 -14 190 0 37 -16 181 -41 365
-6 41 -15 104 -20 140 -21 157 -34 196 -56 168z m2197 -1271 c8 -7 31 -32 51
-57 85 -105 286 -281 376 -328 12 -7 27 -18 35 -24 7 -7 33 -26 57 -43 67 -45
221 -200 221 -222 0 -22 -77 -99 -165 -164 -77 -56 -88 -63 -155 -94 -30 -15
-63 -30 -72 -36 -31 -16 -166 -11 -196 8 -82 51 -118 152 -132 363 -5 69 -13
166 -19 215 -6 50 -16 140 -22 200 -6 61 -14 129 -16 153 -5 44 7 54 37 29z
m1041 -540 c59 -31 80 -50 77 -71 -3 -19 -8 -21 -73 -18 -38 2 -78 6 -87 8
-28 8 -22 49 10 73 32 24 42 25 73 8z"/>
<path d="M5950 1528 c-11 -23 -20 -61 -20 -85 0 -24 -4 -43 -8 -43 -10 0 -52
55 -52 69 0 9 -66 71 -76 71 -22 0 -44 -25 -44 -48 0 -26 29 -62 49 -62 17 0
71 -58 71 -76 0 -28 33 -94 47 -94 7 0 14 10 17 23 22 118 26 148 26 176 l0
34 45 -6 c44 -7 45 -6 45 22 0 32 -27 61 -58 61 -15 0 -27 -12 -42 -42z"/>
<path d="M3966 3305 c-19 -30 -22 -119 -3 -113 6 3 13 13 15 24 7 44 11 48 33
28 41 -37 78 22 39 64 -28 29 -64 28 -84 -3z"/>
<path d="M5077 3312 c-10 -10 -17 -32 -17 -49 0 -33 -26 -93 -41 -93 -5 0 -13
10 -18 23 -5 12 -25 39 -44 60 -44 50 -80 49 -85 -2 -3 -27 2 -39 25 -57 15
-13 34 -23 40 -24 7 0 24 -18 38 -40 32 -51 35 -140 5 -185 -11 -16 -20 -40
-20 -52 0 -12 -4 -25 -10 -28 -5 -3 -10 -35 -10 -70 0 -53 3 -66 19 -75 31
-16 50 -12 76 16 28 30 34 74 10 74 -8 0 -15 -4 -15 -10 0 -5 -7 -10 -15 -10
-21 0 -20 85 1 125 9 17 16 46 16 65 0 19 6 43 14 54 8 12 14 45 14 82 0 56
16 117 36 137 4 4 16 -1 26 -10 23 -20 41 -7 41 31 0 52 -53 75 -86 38z"/>
<path d="M2648 3288 c-17 -15 -48 -104 -48 -141 0 -43 -12 -37 -47 21 -52 87
-100 115 -123 73 -24 -45 -4 -75 72 -108 17 -7 30 -22 33 -40 4 -15 10 -37 15
-48 5 -11 12 -30 15 -43 4 -14 13 -22 23 -20 18 3 26 38 38 156 8 70 19 82 61
63 21 -10 28 -9 34 1 15 23 10 57 -11 78 -23 23 -40 25 -62 8z"/>
<path d="M3006 3256 c-14 -25 -26 -51 -26 -60 0 -8 -4 -17 -9 -20 -13 -8 -21
-76 -14 -118 10 -63 73 -64 99 -2 18 44 19 42 -18 40 -39 -1 -47 20 -24 69 9
18 16 36 16 41 0 4 7 15 16 25 17 19 13 69 -5 69 -5 0 -21 -20 -35 -44z"/>
<path d="M5816 3293 c-10 -10 -7 -73 5 -114 10 -32 9 -42 -5 -64 -18 -27 -24
-29 -46 -15 -10 6 -17 33 -20 87 -3 43 -9 77 -15 77 -23 -3 -31 -44 -24 -123
6 -68 11 -84 31 -101 32 -27 36 -26 79 20 l37 39 16 -24 c12 -18 25 -25 50
-25 64 0 83 73 46 180 -20 60 -30 69 -51 44 -11 -14 -10 -26 9 -80 23 -66 22
-84 -3 -84 -28 0 -55 42 -55 86 0 63 -32 119 -54 97z"/>
<path d="M3764 3276 c-15 -38 1 -69 47 -93 46 -24 56 -41 85 -151 2 -8 14 -12
26 -10 20 3 23 10 26 52 4 68 -4 94 -30 98 -13 2 -24 12 -28 25 -9 37 -66 93
-94 93 -15 0 -29 -6 -32 -14z"/>
<path d="M6310 3272 c-44 -30 -79 -76 -80 -103 0 -18 12 -36 40 -60 46 -39 48
-49 19 -69 -38 -27 -154 -114 -159 -119 -9 -11 -144 -98 -242 -155 -85 -51
-118 -80 -104 -93 6 -6 84 16 88 25 2 4 19 15 38 26 119 64 151 82 200 114 79
54 98 70 165 138 l60 61 27 -20 c14 -10 31 -16 37 -13 16 10 13 62 -4 76 -19
16 -19 59 0 84 21 28 19 89 -3 109 -23 21 -50 21 -82 -1z m34 -68 c37 -36 4
-83 -34 -49 -23 21 -25 36 -8 53 16 16 23 15 42 -4z"/>
<path d="M2168 3209 c-10 -5 -18 -21 -18 -35 0 -13 -7 -41 -15 -61 -19 -44
-19 -105 0 -208 8 -44 15 -116 15 -160 0 -44 7 -123 15 -175 8 -52 15 -126 15
-165 1 -38 5 -90 10 -115 6 -25 14 -121 20 -215 5 -93 14 -194 20 -224 5 -29
10 -106 10 -171 0 -102 -2 -119 -19 -134 -67 -61 -179 -75 -238 -30 -19 14
-38 36 -44 47 -5 12 -13 29 -18 37 -6 8 -22 41 -36 73 -29 64 -40 72 -89 63
-32 -6 -156 -107 -156 -126 0 -5 -11 -25 -24 -45 -57 -84 -82 -228 -51 -302 8
-19 15 -51 15 -69 l0 -34 -55 0 c-48 0 -100 -15 -145 -41 -8 -5 -25 -13 -37
-19 -32 -14 -149 -92 -208 -140 -338 -272 -451 -324 -553 -250 -87 63 -96 180
-26 340 39 87 70 148 94 180 62 85 86 171 50 178 -11 2 -23 -14 -37 -48 -18
-41 -26 -50 -46 -50 -30 0 -63 37 -72 81 -10 46 21 157 81 287 13 29 24 55 24
58 0 3 9 26 21 51 21 46 20 73 -4 73 -13 0 -57 -76 -57 -99 0 -6 -4 -11 -10
-11 -5 0 -10 -5 -10 -11 0 -5 -9 -31 -21 -57 -72 -164 -88 -210 -100 -282 -18
-112 11 -210 63 -210 25 0 23 -32 -6 -78 -12 -20 -27 -48 -31 -62 -4 -14 -11
-30 -16 -36 -5 -6 -14 -48 -20 -93 -12 -90 1 -200 27 -222 8 -6 14 -17 14 -23
0 -6 11 -23 25 -38 74 -80 153 -109 243 -88 52 13 112 44 120 63 2 4 8 7 13 7
10 0 206 144 224 164 26 30 177 134 235 162 118 57 150 66 250 67 89 2 99 0
165 -33 39 -19 82 -43 96 -53 45 -32 61 -13 62 70 0 38 -3 75 -7 81 -6 10 -30
23 -136 71 -87 40 -151 117 -175 213 -7 27 20 96 52 134 56 65 153 109 153 69
0 -9 14 -45 32 -81 41 -84 106 -144 157 -145 76 -2 114 3 155 21 64 29 99 81
111 167 7 57 26 90 43 79 7 -4 12 -16 12 -27 0 -60 114 -209 160 -209 10 0 21
-4 25 -9 13 -22 120 -43 190 -38 93 8 163 21 177 35 7 7 19 12 28 12 42 0 249
128 328 202 54 51 77 88 87 141 4 20 11 40 16 43 5 3 9 12 9 20 0 27 -35 13
-80 -32 -68 -70 -158 -136 -235 -172 -101 -47 -118 -52 -186 -52 -82 0 -99 9
-181 93 -65 66 -113 158 -138 262 -11 49 -11 50 17 72 15 13 33 23 40 23 6 0
24 6 40 14 68 34 209 65 292 66 52 0 155 -25 187 -46 24 -16 64 -11 64 7 0 37
-155 123 -259 145 -80 17 -107 17 -185 3 -111 -20 -182 -66 -243 -157 l-38
-57 1 -105 c1 -114 17 -169 76 -259 52 -78 15 -98 -50 -27 -61 67 -78 106
-126 293 -9 37 -16 105 -16 165 0 57 -7 150 -15 208 -8 58 -15 134 -15 170 0
36 -7 103 -15 150 -8 47 -15 114 -15 150 0 36 -7 106 -15 155 -8 50 -15 108
-15 131 0 23 -5 55 -11 72 -6 17 -14 61 -17 98 -7 70 -15 80 -44 63z"/>
<path d="M1841 3121 c-13 -18 -21 -45 -21 -69 0 -48 17 -65 26 -25 12 56 12
57 39 39 37 -24 55 -20 55 12 0 68 -62 95 -99 43z"/>
<path d="M1635 3090 c-11 -33 4 -59 50 -85 43 -26 75 -74 75 -112 0 -11 10
-30 22 -42 21 -23 22 -23 35 -5 9 13 12 35 9 67 -3 39 -11 54 -35 74 -17 14
-31 31 -31 37 0 6 -14 28 -31 49 -35 43 -83 52 -94 17z"/>
<path d="M1323 2964 c-75 -33 -139 -137 -115 -188 6 -14 34 -42 62 -63 27 -20
50 -44 50 -52 0 -16 -374 -391 -390 -391 -13 0 -13 37 0 45 14 8 45 82 61 143
10 43 11 61 0 99 -15 60 -25 71 -67 79 -42 8 -91 -21 -134 -78 -54 -74 -30
-118 27 -49 35 41 62 51 93 31 11 -7 15 -27 13 -83 -2 -85 -39 -177 -95 -237
-40 -42 -150 -138 -196 -170 -54 -37 -84 -68 -77 -79 10 -16 39 -13 63 7 11 9
28 23 39 30 10 7 50 35 88 62 39 27 78 55 89 62 199 136 449 368 492 458 23
48 46 51 71 10 11 -19 25 -30 40 -30 21 0 23 5 23 44 0 25 -5 48 -10 51 -22
13 -41 64 -30 82 13 24 40 110 40 129 0 21 -30 77 -49 91 -20 16 -48 15 -88
-3z m33 -82 c33 -22 45 -100 19 -122 -16 -14 -30 -6 -82 49 -27 28 -28 38 -6
63 16 18 49 23 69 10z"/>
<path d="M2877 2865 c-13 -14 -30 -39 -37 -55 -7 -17 -16 -30 -21 -30 -10 0
-12 -43 -3 -53 4 -3 21 0 38 7 17 7 72 16 122 20 74 6 93 4 103 -7 10 -12 7
-19 -16 -34 -15 -11 -50 -27 -78 -37 -27 -10 -64 -24 -82 -32 -17 -8 -36 -14
-41 -14 -17 0 -82 -41 -82 -52 0 -12 62 -6 167 15 47 9 85 24 110 43 41 30
105 98 117 124 4 8 13 26 21 40 30 51 21 65 -49 78 -35 7 -104 12 -153 12 -83
0 -92 -2 -116 -25z"/>
<path d="M4478 2848 c-7 -13 -17 -30 -23 -39 -45 -72 -47 -80 -29 -100 9 -10
21 -19 27 -19 5 0 26 -13 46 -28 49 -39 66 -44 83 -24 22 25 68 109 68 122 0
13 -39 49 -54 50 -4 0 -25 14 -46 30 -45 36 -55 37 -72 8z"/>
<path d="M2565 2830 c-3 -11 -11 -20 -16 -20 -5 0 -9 -5 -9 -11 0 -11 -33 -91
-51 -123 -14 -25 -23 -125 -15 -168 7 -41 38 -63 66 -48 25 13 70 79 70 102 0
23 -26 23 -39 1 -8 -14 -14 -16 -28 -7 -21 13 -29 59 -14 88 5 12 19 44 31 71
12 28 27 63 35 79 7 16 11 35 8 43 -8 20 -31 16 -38 -7z"/>
<path d="M8060 2748 c0 -7 -13 -39 -29 -70 -61 -120 -64 -223 -7 -243 25 -8
31 -6 52 18 13 16 24 35 24 43 0 8 5 14 10 14 6 0 10 7 10 15 0 17 -25 20 -35
5 -3 -5 -15 -10 -25 -10 -30 0 -35 41 -11 86 12 21 21 46 21 56 0 9 5 18 11
20 6 2 11 19 12 38 2 25 -2 35 -15 38 -10 2 -18 -2 -18 -10z"/>
<path d="M1923 2663 c-7 -2 -13 -11 -13 -19 0 -13 -11 -41 -50 -129 -30 -68
-49 -115 -60 -150 -7 -22 -19 -57 -26 -78 -19 -51 -18 -158 2 -207 12 -30 26
-45 51 -55 60 -25 98 7 162 138 39 81 4 110 -39 32 -27 -49 -43 -54 -77 -26
-34 29 -45 85 -27 145 9 28 20 59 25 68 5 10 9 23 9 30 0 12 27 86 56 155 8
17 14 38 14 46 0 9 5 17 12 19 6 2 9 12 5 21 -6 17 -20 20 -44 10z"/>
<path d="M7631 2571 c-12 -16 -21 -32 -21 -36 0 -4 -9 -18 -20 -32 -33 -42
-26 -68 23 -93 23 -12 54 -33 69 -47 31 -30 53 -25 70 14 7 15 20 39 30 52 23
31 24 77 1 85 -22 7 -46 22 -95 59 l-36 27 -21 -29z"/>
<path d="M6590 2477 c-210 -106 -318 -164 -380 -202 -19 -12 -56 -32 -83 -45
-59 -29 -87 -55 -87 -80 0 -34 18 -31 87 11 37 23 93 55 123 72 30 16 80 43
110 60 120 66 383 197 396 197 19 0 18 -54 -1 -70 -20 -16 -19 -70 1 -98 27
-38 57 -27 91 35 13 23 2 40 -17 28 -6 -4 -17 -1 -25 5 -17 14 -10 96 11 121
23 26 22 64 -1 66 -11 2 -112 -44 -225 -100z"/>
<path d="M3155 2501 c-3 -5 -20 -13 -38 -16 -17 -4 -36 -11 -42 -14 -5 -4 -41
-18 -80 -30 -38 -12 -84 -29 -102 -37 -17 -8 -36 -14 -42 -14 -6 0 -25 -6 -43
-14 -18 -8 -49 -21 -70 -30 -20 -9 -40 -16 -45 -16 -6 0 -23 -6 -39 -14 -16
-7 -61 -26 -101 -40 -69 -26 -112 -64 -98 -86 9 -15 20 -13 88 19 104 48 134
61 149 61 8 0 18 4 24 8 5 5 41 19 79 31 39 12 79 26 90 31 11 5 49 19 85 30
36 12 77 28 92 36 14 8 40 14 58 14 35 0 35 -7 3 -82 -36 -85 44 -146 90 -68
9 15 17 35 17 44 0 18 -15 21 -25 6 -3 -5 -13 -10 -21 -10 -19 0 -20 105 -1
113 14 5 38 72 29 81 -9 9 -50 7 -57 -3z"/>
<path d="M1538 2377 c-9 -7 -20 -25 -23 -40 -4 -15 -11 -30 -16 -33 -5 -3 -9
-30 -9 -60 0 -30 -4 -54 -9 -54 -5 0 -24 25 -41 55 -37 65 -75 97 -109 93 -22
-3 -26 -9 -29 -40 -3 -34 0 -39 37 -63 22 -14 45 -25 51 -25 6 0 17 -15 24
-32 8 -18 21 -49 30 -70 20 -45 20 -87 1 -115 -8 -11 -17 -39 -21 -62 -4 -23
-11 -44 -15 -47 -15 -9 -10 -118 7 -142 21 -31 58 -28 82 6 35 51 33 102 -3
72 -27 -22 -38 0 -33 64 3 34 10 71 16 82 11 20 42 226 42 280 0 16 5 35 12
42 15 15 48 16 48 2 0 -18 29 -11 40 9 13 25 -2 66 -29 80 -25 14 -32 13 -53
-2z"/>
<path d="M7087 2342 c-10 -10 -17 -22 -17 -26 0 -9 -43 -70 -52 -74 -12 -5 -9
-62 2 -62 6 0 21 7 34 15 14 9 61 17 127 21 87 6 106 4 117 -8 11 -13 7 -19
-23 -37 -20 -11 -40 -21 -45 -21 -5 0 -24 -6 -42 -14 -18 -8 -49 -21 -70 -30
-20 -9 -39 -16 -44 -16 -18 0 -84 -36 -84 -46 0 -23 31 -23 142 0 l113 22 62
60 c34 32 62 64 63 71 0 6 3 13 8 15 17 7 63 88 60 104 -5 29 -71 42 -209 43
-110 1 -128 -1 -142 -17z"/>
<path d="M8324 2336 c-21 -15 -52 -105 -56 -166 -4 -42 -19 -46 -29 -7 -4 16
-26 53 -49 83 -33 43 -46 54 -69 54 -31 0 -41 -15 -41 -58 0 -21 11 -35 53
-62 53 -36 96 -101 97 -146 0 -29 24 -49 37 -32 15 20 23 55 32 146 6 57 14
89 27 103 17 19 19 19 30 4 19 -25 58 -15 61 15 5 49 -55 92 -93 66z"/>
<path d="M5197 2312 c-18 -19 -24 -92 -8 -92 5 0 14 7 21 15 10 12 16 12 26 4
38 -31 63 41 26 74 -24 22 -45 21 -65 -1z"/>
<path d="M4990 2260 c-15 -36 -6 -49 52 -86 38 -24 78 -93 78 -133 0 -24 22
-28 40 -7 16 20 27 166 12 166 -6 0 -14 -9 -17 -20 -8 -25 -23 -26 -33 -2 -15
37 -58 92 -80 102 -34 15 -38 13 -52 -20z"/>
<path d="M6617 2129 c-9 -5 -27 -34 -42 -64 -14 -30 -32 -55 -39 -55 -16 0
-83 44 -109 72 -33 34 -46 23 -113 -96 -16 -28 -15 -29 13 -52 15 -13 32 -23
37 -24 4 0 25 -13 46 -30 21 -16 43 -30 48 -30 6 0 22 24 36 53 14 30 31 59
39 65 14 12 57 5 57 -8 0 -11 90 -70 107 -70 7 0 13 5 13 11 0 7 14 34 30 61
17 26 30 56 30 66 0 25 -132 112 -153 101z"/>
<path d="M7663 2124 c-36 -15 -93 -80 -123 -139 -14 -28 -20 -59 -20 -111 0
-71 0 -72 40 -108 l40 -36 113 0 c98 0 117 -3 151 -23 22 -13 44 -35 52 -54
13 -32 12 -33 -29 -66 -45 -36 -77 -51 -147 -73 -55 -17 -70 -17 -70 -3 0 7
-10 32 -22 56 -28 56 -104 126 -161 148 -43 16 -46 16 -85 -4 -111 -57 -181
-223 -136 -322 28 -62 65 -79 175 -79 52 0 109 4 127 10 32 9 34 7 48 -25 22
-53 18 -68 -33 -116 -64 -60 -291 -229 -308 -229 -2 0 -34 -20 -72 -45 -37
-25 -71 -45 -75 -45 -4 0 -26 -12 -50 -27 -69 -45 -80 -51 -133 -78 -27 -14
-57 -29 -65 -34 -8 -4 -32 -15 -52 -25 -89 -38 -110 -47 -145 -62 -21 -9 -51
-23 -66 -30 -16 -8 -34 -14 -42 -14 -7 0 -26 -7 -41 -15 -16 -8 -37 -15 -46
-15 -9 0 -19 -4 -22 -9 -3 -5 -22 -12 -42 -16 -65 -12 -108 -54 -70 -68 7 -3
29 -2 47 3 19 5 54 14 79 20 25 6 65 15 90 22 25 6 65 14 90 18 82 13 237 54
285 75 17 7 37 16 45 19 8 3 29 15 45 26 17 11 39 24 50 29 11 5 37 21 58 35
21 14 42 26 46 26 4 0 27 13 49 30 23 16 44 30 47 30 9 0 235 174 274 210 47
44 57 29 37 -58 -14 -64 -14 -78 0 -149 8 -43 23 -96 34 -118 22 -47 86 -125
102 -125 7 0 20 -8 31 -18 16 -14 38 -17 136 -16 113 1 118 2 191 38 123 60
172 89 204 118 17 16 34 28 39 28 20 0 223 203 245 244 38 73 51 131 52 231 0
100 -20 189 -49 218 -6 6 -11 17 -11 24 0 7 -25 37 -55 68 l-55 55 -64 0 c-55
0 -69 -4 -107 -32 -54 -38 -69 -59 -91 -123 -23 -63 -23 -143 -1 -175 44 -62
47 -64 193 -70 139 -6 180 -17 180 -49 0 -16 -134 -150 -212 -212 -55 -43
-162 -113 -204 -133 -21 -10 -47 -22 -56 -27 -56 -28 -144 -49 -211 -49 -156
0 -222 77 -243 280 -4 46 -2 84 9 125 32 123 47 191 49 223 3 36 1 34 118 92
107 53 133 88 164 223 19 81 19 81 -13 242 -9 45 -53 140 -79 170 -24 29 -92
79 -125 93 -35 15 -63 14 -104 -4z m69 -164 c7 -5 26 -21 42 -34 20 -17 27
-29 22 -41 -5 -15 -15 -16 -64 -11 -92 11 -112 17 -122 37 -9 15 -6 24 15 45
22 21 33 25 60 21 19 -3 40 -11 47 -17z m-251 -422 c38 -22 58 -56 45 -76 -8
-14 -124 -3 -158 15 -34 16 -36 46 -6 67 31 22 72 20 119 -6z m914 -150 c7 -7
25 -22 39 -32 14 -10 26 -28 26 -39 0 -19 -4 -19 -82 -12 -108 9 -132 29 -90
74 20 22 86 28 107 9z"/>
<path d="M899 1918 c-65 -102 -59 -111 55 -84 39 9 92 16 119 16 43 0 47 -2
47 -25 0 -25 -23 -40 -100 -65 -92 -31 -179 -66 -182 -74 -2 -5 5 -14 14 -19
12 -8 45 -5 125 12 99 22 112 27 151 65 42 40 111 133 125 170 4 9 2 26 -3 37
-10 17 -23 19 -164 19 l-153 0 -34 -52z"/>
<path d="M8490 1925 c-39 -21 -97 -45 -109 -45 -6 0 -19 -4 -29 -10 -9 -5 -60
-26 -112 -46 -99 -38 -130 -57 -130 -81 0 -24 28 -26 72 -5 24 11 63 28 88 37
25 10 54 21 65 26 11 5 49 18 85 30 115 37 132 47 128 77 -3 31 -22 36 -58 17z"/>
<path d="M2903 1913 c-3 -10 -14 -36 -23 -58 -46 -106 -49 -144 -14 -180 29
-29 93 13 94 63 0 25 -12 29 -30 7 -33 -40 -41 39 -10 98 24 45 26 87 5 87 -9
0 -18 -8 -22 -17z"/>
<path d="M4145 1872 c-15 -31 -31 -65 -36 -74 -30 -58 7 -147 54 -132 12 3 22
7 23 8 0 0 8 13 17 28 21 34 22 58 2 58 -8 0 -15 -4 -15 -10 0 -17 -28 -11
-32 8 -5 23 12 92 23 92 12 0 12 67 0 74 -5 3 -21 -20 -36 -52z"/>
<path d="M7120 1873 c-17 -29 -21 -48 -18 -85 4 -36 2 -48 -9 -48 -7 0 -17 9
-21 19 -11 30 -92 121 -108 121 -16 0 -34 -31 -34 -58 0 -21 33 -53 72 -70 17
-7 30 -22 33 -39 11 -49 38 -103 51 -103 12 0 16 13 28 100 7 51 17 103 22
119 4 11 7 12 16 3 7 -7 25 -12 40 -12 22 0 28 4 28 23 -1 29 -33 67 -58 67
-13 0 -28 -14 -42 -37z"/>
<path d="M4935 1590 c-27 -15 -95 -51 -150 -80 -55 -29 -118 -64 -140 -76 -22
-13 -59 -33 -82 -45 -43 -23 -61 -56 -40 -76 9 -10 23 -5 62 19 51 32 128 74
310 169 103 53 115 62 115 90 0 28 -23 28 -75 -1z"/>
<path d="M1240 1518 c-11 -24 -20 -62 -20 -90 0 -26 -4 -48 -8 -48 -10 0 -52
55 -52 68 0 4 -15 23 -34 41 -45 44 -80 40 -84 -8 -3 -27 2 -39 25 -57 15 -13
33 -23 39 -24 16 0 40 -31 49 -60 12 -42 38 -100 46 -100 16 0 27 29 33 85 15
131 19 147 33 152 8 3 25 0 39 -7 27 -15 29 -14 38 16 9 28 -28 74 -59 74 -19
0 -29 -10 -45 -42z"/>
<path d="M3230 1458 c-6 -13 -14 -30 -19 -38 -47 -81 -65 -175 -41 -221 20
-37 69 -21 103 33 21 34 22 48 2 48 -8 0 -15 -5 -15 -11 0 -6 -10 -9 -22 -7
-18 2 -24 11 -26 36 -2 18 1 39 6 45 5 7 13 27 17 45 3 17 11 32 16 32 5 0 9
14 9 30 0 35 -16 39 -30 8z"/>
<path d="M7153 1378 c-23 -26 -63 -109 -63 -132 0 -8 -4 -18 -10 -21 -5 -3
-10 -30 -10 -59 0 -43 5 -57 24 -75 28 -26 52 -19 80 23 26 40 18 96 -9 59
-35 -47 -47 41 -16 110 19 41 37 117 29 117 -3 0 -14 -10 -25 -22z"/>
<path d="M890 1296 c0 -8 -6 -21 -14 -28 -7 -8 -30 -49 -51 -92 -32 -68 -37
-85 -33 -132 5 -60 5 -59 35 -68 21 -7 36 5 81 58 12 15 17 46 7 46 -3 0 -14
-5 -24 -12 -15 -9 -23 -9 -35 1 -9 8 -16 19 -16 26 0 13 62 138 79 159 13 16
3 56 -15 56 -8 0 -14 -6 -14 -14z"/>
<path d="M2764 1195 c-48 -49 -55 -78 -24 -95 20 -11 18 -35 -4 -55 -17 -16
-46 -75 -46 -94 0 -10 10 -27 23 -39 44 -41 159 -22 240 41 34 27 49 57 28 57
-13 0 -75 -33 -83 -45 -4 -5 -38 -10 -75 -10 -64 0 -68 1 -71 24 -4 26 33 70
88 104 46 28 60 42 60 61 0 21 -34 21 -50 0 -20 -23 -64 -14 -68 14 -3 23 21
32 33 12 11 -17 23 -11 29 14 8 31 -2 56 -21 56 -8 0 -34 -20 -59 -45z"/>
<path d="M8053 1183 c-20 -8 -53 -92 -53 -134 0 -22 -4 -39 -9 -39 -4 0 -24
26 -44 59 -20 32 -47 66 -61 74 -22 15 -25 14 -47 -9 -23 -24 -23 -25 -6 -57
11 -20 33 -38 57 -49 22 -9 42 -22 44 -30 34 -119 57 -156 70 -110 11 38 26
129 29 167 l2 40 42 -2 c38 -2 44 1 49 23 5 18 0 32 -17 50 -22 24 -33 27 -56
17z"/>
<path d="M6411 1153 c-6 -16 -15 -35 -19 -43 -48 -85 -54 -131 -21 -166 26
-28 56 -18 82 27 20 36 14 54 -12 39 -10 -5 -21 -6 -25 -3 -12 12 -6 79 9 99
16 21 20 74 6 74 -5 0 -14 -12 -20 -27z"/>
<path d="M3585 859 c-22 -11 -67 -32 -100 -46 -105 -44 -339 -163 -347 -176
-14 -23 -9 -47 11 -47 11 0 21 4 23 9 5 14 242 130 368 181 88 35 105 47 108
74 4 32 -9 32 -63 5z"/>
<path d="M2091 838 c-11 -31 -6 -40 40 -77 56 -46 80 -104 77 -190 -3 -75 6
-97 28 -67 9 14 14 47 14 104 0 102 -22 154 -89 213 -51 45 -59 47 -70 17z"/>
<path d="M1700 838 c-1 -7 -9 -31 -20 -53 -11 -22 -19 -45 -20 -52 0 -6 -4
-13 -10 -15 -5 -1 -14 -27 -20 -57 -18 -96 17 -160 70 -131 20 11 63 80 55 88
-3 3 -22 6 -42 6 -47 1 -53 21 -24 77 12 22 21 46 21 53 0 8 4 16 10 18 5 2
11 19 12 38 2 26 -1 35 -14 38 -10 2 -18 -2 -18 -10z"/>
<path d="M7430 798 c-6 -13 -21 -42 -34 -66 -49 -85 -54 -190 -10 -218 21 -14
25 -14 48 3 14 10 27 28 31 41 3 12 10 22 15 22 6 0 10 9 10 20 0 21 -24 28
-35 10 -3 -5 -15 -10 -25 -10 -40 0 -31 69 20 162 13 23 13 58 0 58 -6 0 -15
-10 -20 -22z"/>
<path d="M1257 793 c-4 -3 -7 -14 -7 -23 0 -10 -7 -23 -15 -30 -24 -20 -20
-112 6 -136 24 -22 43 -13 76 36 26 37 23 49 -9 43 -13 -2 -30 1 -38 6 -12 9
-13 14 -2 31 22 36 13 98 -11 73z"/>
<path d="M3995 735 c-49 -24 -135 -65 -190 -90 -169 -79 -183 -87 -194 -112
-6 -13 -9 -29 -6 -34 8 -12 42 -12 50 1 5 9 120 67 185 94 8 3 22 10 30 15 8
5 49 25 90 44 41 19 96 45 123 57 37 17 47 27 47 46 0 35 -30 31 -135 -21z"/>
<path d="M3565 740 c-33 -16 -114 -55 -180 -85 -199 -93 -209 -98 -231 -118
-14 -11 -20 -26 -17 -38 3 -10 7 -19 8 -19 2 0 54 26 117 58 62 31 140 69 173
84 33 14 90 40 128 57 37 17 71 31 76 31 10 0 21 24 21 46 0 21 -28 16 -95
-16z"/>
<path d="M5420 713 c-40 -13 -317 -157 -334 -173 -21 -20 -16 -50 8 -50 8 0
35 14 59 30 25 17 47 30 50 30 3 0 53 23 111 50 58 28 110 50 116 50 13 0 25
49 14 59 -5 5 -16 6 -24 4z"/>
</g>
</svg>
