<svg width="20" height="20" viewBox="0 0 20 20" fill="none" xmlns="http://www.w3.org/2000/svg">
<g clip-path="url(#clip0_618_7)">
<path d="M10.542 12.4926L8.54171 10.516L8.56534 10.4923C9.93559 8.96458 10.9121 7.20845 11.487 5.34995H13.7943V3.77495H8.28184V2.19995H6.70684V3.77495H1.19434V5.34208H9.99071C9.46309 6.86195 8.62834 8.30308 7.49434 9.56308C6.76196 8.75195 6.15559 7.86208 5.67521 6.92495H4.10021C4.67509 8.20858 5.46259 9.42133 6.44696 10.516L2.43859 14.4692L3.55684 15.5875L7.49434 11.65L9.94346 14.0991L10.542 12.4926ZM14.9756 8.49995H13.4006L9.85684 17.95H11.4318L12.3138 15.5875H16.0545L16.9443 17.95H18.5193L14.9756 8.49995ZM12.9123 14.0125L14.1881 10.6026L15.4638 14.0125H12.9123Z" fill="black"/>
</g>
<defs>
<clipPath id="clip0_618_7">
<rect width="18.9" height="18.9" fill="white" transform="translate(0.40625 0.625)"/>
</clipPath>
</defs>
</svg>
