<svg width="129" height="51" viewBox="0 0 129 51" fill="none" xmlns="http://www.w3.org/2000/svg">
<path d="M92.6977 1.29496C92.6977 2.04212 92.2992 2.73947 91.9007 2.93871C90.9045 3.28739 90.9543 5.23 92.0501 6.02697C92.8471 6.6247 92.7973 6.67451 91.8011 6.72432H90.6554V22.4147V38.105H88.912H87.1189L87.2185 32.2772C87.2683 26.549 87.2683 26.3995 85.9234 25.3037C84.2797 23.8592 83.0842 23.8592 81.3906 25.3037C80.1952 26.3497 80.0457 26.798 80.1454 29.2886L80.1952 32.1278H77.2065H74.2179V29.6372V27.1467H60.769H47.3201V29.6372V32.1278H44.5805H41.841V30.1353V28.1927L37.5074 27.9935L33.1241 27.844L37.7565 27.7942C40.2968 27.7942 42.5383 27.6448 42.6877 27.4456C42.8372 27.2961 42.7874 27.1467 42.5383 27.1467C42.2893 27.0969 39.8983 27.0969 37.1588 27.0471L32.2773 26.9973L32.3271 32.5761L32.4267 38.105H31.0819C30.2351 38.105 29.3883 37.6069 28.6909 36.7602L27.6449 35.4153L27.3461 36.8598C27.0472 38.3043 26.9974 38.3043 26.9476 36.5609C26.8978 35.3655 26.5989 34.6183 26.1008 34.4191C24.9053 33.9708 24.8555 33.9708 25.2042 36.1126C25.4034 37.4077 25.3536 38.105 25.005 38.105C24.7061 38.105 24.4072 37.059 24.3076 35.7639C24.208 34.1202 23.9091 33.3232 23.411 33.2236C22.8133 33.124 22.7137 33.5723 22.8133 35.6145C22.9627 37.2085 22.8133 38.105 22.4646 38.105C22.1159 38.105 21.9167 37.0092 21.9167 35.3655C21.9167 32.9746 21.8171 32.6259 20.9205 32.6259C20.0737 32.6259 19.9243 32.9746 19.8246 35.4651L19.7748 38.3541L19.476 35.3655C19.2269 33.0742 18.9779 32.327 18.2805 32.2274C17.5334 32.078 17.4337 32.4764 17.4337 35.0666C17.4337 36.7602 17.2345 38.105 16.9356 38.105C16.6368 38.105 16.4375 36.81 16.4375 35.1662C16.4375 32.4764 16.3379 32.2274 15.4413 32.4764C14.5945 32.7255 14.4451 33.1738 14.4451 35.4153C14.4451 37.059 14.2459 38.105 13.8972 38.105C13.4987 38.105 13.3991 37.2085 13.5485 35.3655C13.7976 32.6757 13.4489 32.1278 12.104 33.0244C11.8051 33.2236 11.4565 34.5187 11.307 35.8636L11.1576 38.3541L11.058 35.7639C10.9583 33.4727 10.8587 33.2236 9.96213 33.4727C9.16516 33.6719 8.96592 34.17 8.96592 35.9632C8.96592 37.3579 8.76668 38.0552 8.46781 37.856C8.16895 37.6568 8.06933 36.81 8.26857 35.7639C8.56744 34.2198 8.46781 34.0206 7.67084 34.2198C6.97349 34.3194 6.62482 34.967 6.42558 36.3617C6.12671 38.2545 6.12671 38.2545 6.02709 36.7104C5.97728 34.5685 4.48296 34.4689 4.48296 36.6107C4.48296 37.4077 4.28372 38.105 3.98485 38.105C3.7358 38.105 3.48675 37.6568 3.48675 37.1088C3.48675 35.7639 2.59015 35.8636 1.99243 37.2085C1.74337 37.856 1.54413 38.105 1.54413 37.7564C1.49432 36.81 0 37.6069 0 38.5533C0 39.3005 4.93126 39.3503 64.0565 39.2507L128.063 39.1013V30.7829C128.063 23.3611 127.964 22.4147 127.266 22.2653C125.971 21.9664 125.324 22.9626 124.726 26.2003C124.278 28.641 124.327 29.8863 125.075 33.2734C125.573 35.5149 125.971 37.5571 125.971 37.856C125.971 39.1013 125.124 36.5111 124.327 32.8749C123.53 29.2387 123.53 28.5912 124.228 25.4033C124.626 23.5105 124.875 21.8668 124.776 21.7173C124.676 21.6177 123.53 21.7173 122.285 21.8668L120.044 22.2154L119.944 30.2848L119.844 38.3541L119.546 30.1353L119.297 21.9664L117.304 21.4185C115.76 20.9702 114.614 20.9702 112.223 21.5181L109.085 22.2154V30.1852V38.105H107.591H106.097V22.4147V6.72432H99.8704C94.192 6.72432 92.6478 6.37565 94.1422 5.47906C94.8893 5.03076 94.7399 3.3372 93.9429 2.8889C93.5444 2.68966 93.146 1.9425 92.9965 1.24515L92.7973 -0.000118936L92.6977 1.29496ZM94.1422 9.76277C94.1422 10.2609 93.7935 10.7092 93.395 10.7092C92.6478 10.7092 92.349 9.16505 92.9467 8.56732C93.4946 8.06921 94.1422 8.71675 94.1422 9.76277ZM97.6289 9.76277C97.6289 10.2609 97.2802 10.7092 96.8818 10.7092C96.1346 10.7092 95.8357 9.16505 96.4335 8.56732C96.9814 8.06921 97.6289 8.71675 97.6289 9.76277ZM101.116 9.76277C101.116 10.3605 100.767 10.7092 100.119 10.7092C99.0236 10.7092 98.8244 9.71296 99.721 8.81637C100.468 8.06921 101.116 8.51751 101.116 9.76277ZM104.503 9.8624C104.602 10.4601 104.353 10.7092 103.656 10.7092C102.909 10.7092 102.61 10.4103 102.61 9.66315C102.61 8.41789 104.254 8.56732 104.503 9.8624ZM94.1422 13.4488C94.1422 14.2457 93.8433 14.694 93.395 14.694C92.9467 14.694 92.6478 14.2457 92.6478 13.4488C92.6478 12.6518 92.9467 12.2035 93.395 12.2035C93.8433 12.2035 94.1422 12.6518 94.1422 13.4488ZM97.6289 13.4488C97.6289 14.2457 97.33 14.694 96.8818 14.694C96.4335 14.694 96.1346 14.2457 96.1346 13.4488C96.1346 12.6518 96.4335 12.2035 96.8818 12.2035C97.33 12.2035 97.6289 12.6518 97.6289 13.4488ZM100.966 13.0005C101.365 14.0465 100.319 15.0925 99.5715 14.3454C98.924 13.6978 99.3225 12.2035 100.119 12.2035C100.418 12.2035 100.767 12.5522 100.966 13.0005ZM104.353 13.4986C104.353 13.9967 103.955 14.4948 103.507 14.5944C102.61 14.7438 102.211 13.2495 102.959 12.5024C103.556 11.9544 104.353 12.5024 104.353 13.4986ZM94.1422 16.9355C94.1422 17.8321 93.9429 18.0812 93.395 17.8819C92.9965 17.6827 92.6478 17.1348 92.6478 16.6366C92.6478 16.1385 92.9965 15.6902 93.395 15.6902C93.8433 15.6902 94.1422 16.1385 94.1422 16.9355ZM97.5293 16.7861C97.2802 18.38 96.1346 18.5295 96.1346 16.9853C96.1346 16.1385 96.3836 15.6902 96.9316 15.6902C97.4297 15.6902 97.6289 16.0389 97.5293 16.7861ZM100.966 16.4872C101.365 17.5332 100.319 18.5793 99.5715 17.8321C98.924 17.1846 99.3225 15.6902 100.119 15.6902C100.418 15.6902 100.767 16.0389 100.966 16.4872ZM104.503 16.8359C104.602 17.4336 104.353 17.6827 103.656 17.6827C103.058 17.6827 102.61 17.3838 102.61 17.0351C102.61 15.491 104.204 15.3416 104.503 16.8359ZM94.1422 20.1732C94.1422 20.7211 93.7935 21.1694 93.395 21.1694C92.9965 21.1694 92.6478 20.7211 92.6478 20.1732C92.6478 19.6253 92.9965 19.177 93.395 19.177C93.7935 19.177 94.1422 19.6253 94.1422 20.1732ZM97.6289 20.1234C97.6289 20.6215 97.2802 21.1694 96.8818 21.3687C96.3338 21.5679 96.1346 21.3189 96.1346 20.4223C96.1346 19.6253 96.4335 19.177 96.8818 19.177C97.2802 19.177 97.6289 19.6253 97.6289 20.1234ZM101.016 20.3226C101.116 20.9204 100.867 21.1694 100.169 21.1694C99.5715 21.1694 99.1232 20.8706 99.1232 20.5219C99.1232 18.9777 100.717 18.8283 101.016 20.3226ZM104.503 20.3226C104.602 20.9204 104.353 21.1694 103.656 21.1694C102.909 21.1694 102.61 20.8706 102.61 20.1234C102.61 18.8781 104.254 19.0276 104.503 20.3226ZM94.1422 23.66C94.1422 24.2079 93.7935 24.6562 93.395 24.6562C92.9965 24.6562 92.6478 24.2079 92.6478 23.66C92.6478 23.112 92.9965 22.6637 93.395 22.6637C93.7935 22.6637 94.1422 23.112 94.1422 23.66ZM97.6289 23.6101C97.6289 24.1082 97.2802 24.6562 96.8818 24.8554C96.3338 25.0547 96.1346 24.8056 96.1346 23.909C96.1346 23.112 96.4335 22.6637 96.8818 22.6637C97.2802 22.6637 97.6289 23.112 97.6289 23.6101ZM101.016 23.8094C101.116 24.4071 100.867 24.6562 100.169 24.6562C99.5715 24.6562 99.1232 24.3573 99.1232 24.0086C99.1232 22.4645 100.717 22.3151 101.016 23.8094ZM104.503 23.8094C104.602 24.4071 104.353 24.6562 103.656 24.6562C103.058 24.6562 102.61 24.3573 102.61 24.0086C102.61 22.4645 104.204 22.3151 104.503 23.8094ZM114.066 24.6562C114.066 25.2041 113.718 25.6524 113.319 25.6524C112.572 25.6524 112.273 24.6064 112.921 24.0086C113.519 23.3611 114.066 23.66 114.066 24.6562ZM94.0425 27.5452C94.1422 28.2923 93.9429 28.641 93.4448 28.641C92.8969 28.641 92.6478 28.1927 92.6478 27.3459C92.6478 25.8018 93.7935 25.9512 94.0425 27.5452ZM97.6289 27.3958C97.6289 28.1927 97.33 28.641 96.8818 28.641C96.4335 28.641 96.1346 28.1927 96.1346 27.3958C96.1346 26.5988 96.4335 26.1505 96.8818 26.1505C97.33 26.1505 97.6289 26.5988 97.6289 27.3958ZM100.966 26.9475C101.365 27.9935 100.319 29.0395 99.5715 28.2923C98.924 27.6448 99.3225 26.1505 100.119 26.1505C100.418 26.1505 100.767 26.4992 100.966 26.9475ZM104.353 27.4456C104.353 27.9437 103.955 28.4418 103.507 28.5414C102.61 28.6908 102.211 27.1965 102.959 26.4494C103.556 25.9014 104.353 26.4494 104.353 27.4456ZM86.6706 27.6448C86.6706 27.9437 85.3257 28.1429 83.6819 28.1429C82.0382 28.1429 80.6933 27.9437 80.6933 27.6448C80.6933 27.3459 82.0382 27.1467 83.6819 27.1467C85.3257 27.1467 86.6706 27.3459 86.6706 27.6448ZM50.3088 32.8749C50.3088 37.3579 50.259 37.6069 49.2628 37.6069C48.416 37.6069 48.2665 37.4077 48.5156 36.4613C48.665 35.8636 48.8145 33.7217 48.8145 31.7293C48.8145 28.8901 48.9639 28.1429 49.5616 28.1429C50.1593 28.1429 50.3088 28.9897 50.3088 32.8749ZM53.6959 33.2236C53.8453 37.856 53.7955 38.0054 52.7993 37.7564C51.9027 37.5073 51.8031 37.1088 51.8031 33.1738C51.8031 30.7829 51.9525 28.641 52.1518 28.4418C53.0982 27.4954 53.5465 28.8403 53.6959 33.2236ZM57.0332 33.0742C57.0332 37.1586 56.9336 37.7564 56.1864 37.9058C55.3895 38.0054 55.2898 37.5073 55.2898 33.0244C55.2898 28.5912 55.3895 28.0931 56.1864 28.2425C56.9336 28.392 57.0332 29.0395 57.0332 33.0742ZM60.2709 33.1738C60.2709 37.6069 60.1713 38.1549 59.4241 38.0054C58.7268 37.856 58.5773 37.2085 58.6272 33.4727C58.677 27.8939 58.677 28.1429 59.5238 28.1429C60.1215 28.1429 60.2709 29.0395 60.2709 33.1738ZM63.658 33.2734C63.8075 37.856 63.7577 38.105 62.7614 38.105C61.815 38.105 61.7652 37.8062 61.7652 33.4727C61.7652 30.8825 61.9147 28.641 62.1139 28.4418C63.0603 27.4954 63.5086 28.8403 63.658 33.2734ZM66.6467 33.2734C66.7961 37.856 66.7463 38.105 65.7501 38.105C64.8037 38.105 64.7539 37.8062 64.7539 33.4727C64.7539 30.8825 64.9033 28.641 65.1025 28.4418C66.0489 27.4954 66.4972 28.8403 66.6467 33.2734ZM69.7349 33.124C69.7349 37.2085 69.5855 38.105 68.9878 38.105C68.3901 38.105 68.2406 37.2085 68.2406 33.124C68.2406 29.0395 68.3901 28.1429 68.9878 28.1429C69.5855 28.1429 69.7349 29.0395 69.7349 33.124ZM73.1221 33.2734C73.2715 37.856 73.2217 38.105 72.2255 38.105C71.2791 38.105 71.2293 37.8062 71.2293 33.4727C71.2293 30.8825 71.3787 28.641 71.5779 28.4418C72.5243 27.4954 72.9726 28.8403 73.1221 33.2734ZM85.3257 28.9897C84.4291 29.0893 82.9348 29.0893 82.088 28.9897C81.1914 28.8901 81.8887 28.7905 83.6819 28.7905C85.4751 28.7905 86.1725 28.8901 85.3257 28.9897ZM36.1127 30.6334C36.1127 31.281 35.8139 31.8787 35.515 31.9783C34.718 32.2772 34.1701 30.9323 34.5686 29.8365C35.0169 28.6908 36.1127 29.2886 36.1127 30.6334ZM39.8485 30.9323C39.8485 31.6795 39.5497 32.1278 39.1014 32.1278C38.3542 32.1278 38.0554 30.1353 38.6531 29.4878C39.2508 28.9399 39.8485 29.6372 39.8485 30.9323ZM94.0425 31.0319C94.1422 31.7791 93.9429 32.1278 93.4448 32.1278C92.8969 32.1278 92.6478 31.6795 92.6478 30.8327C92.6478 29.2886 93.7935 29.438 94.0425 31.0319ZM97.6289 30.8825C97.6289 31.6795 97.33 32.1278 96.8818 32.1278C96.4335 32.1278 96.1346 31.6795 96.1346 30.8825C96.1346 30.0855 96.4335 29.6372 96.8818 29.6372C97.33 29.6372 97.6289 30.0855 97.6289 30.8825ZM101.016 31.0319C101.116 31.7293 100.916 32.1278 100.418 32.1278C99.4719 32.1278 98.9738 31.281 99.3225 30.3346C99.721 29.2387 100.817 29.7369 101.016 31.0319ZM104.353 30.9323C104.353 31.4304 103.955 31.9285 103.507 32.0281C102.61 32.1776 102.211 30.6833 102.959 29.9361C103.556 29.3882 104.353 29.9361 104.353 30.9323ZM114.465 32.2772C114.565 32.7753 114.315 33.124 113.867 33.124C113.369 33.124 113.07 32.6757 113.07 32.078C113.07 30.8825 114.216 31.0319 114.465 32.2772ZM118.798 32.1278C118.798 32.4764 118.201 32.8251 117.454 32.9247C116.208 33.0244 115.561 32.2772 116.308 31.53C116.806 31.0319 118.798 31.4802 118.798 32.1278ZM43.8334 35.8636C43.8334 37.6069 43.684 38.0054 43.0862 37.8062C42.3391 37.5073 41.9904 34.1202 42.6379 33.4727C43.3353 32.7753 43.8334 33.7715 43.8334 35.8636ZM46.822 35.6643C46.822 37.059 46.6228 37.6069 46.0749 37.6069C45.527 37.6069 45.3277 37.059 45.3277 35.7141C45.3277 34.6681 45.4771 33.6221 45.6266 33.4727C46.3239 32.8251 46.822 33.7715 46.822 35.6643ZM76.2103 35.9134C76.2103 37.5073 76.0111 38.105 75.4632 38.105C74.9152 38.105 74.716 37.5571 74.716 35.9632C74.716 34.7677 74.8654 33.6221 75.0149 33.4727C75.7122 32.7753 76.2103 33.7715 76.2103 35.9134ZM79.199 35.9134C79.199 37.5073 78.9997 38.105 78.4518 38.105C77.9039 38.105 77.7046 37.5571 77.7046 35.9632C77.7046 34.7677 77.8541 33.6221 78.0035 33.4727C78.7009 32.7753 79.199 33.7715 79.199 35.9134ZM36.2622 35.7639C36.3618 36.7104 36.2124 37.1088 35.6644 37.1088C35.1165 37.1088 34.8675 36.6107 34.8675 35.5647C34.8675 33.6719 36.0629 33.8213 36.2622 35.7639ZM39.8485 35.9134C39.8485 36.6605 39.5497 37.1088 39.1014 37.1088C38.3542 37.1088 38.0554 35.1164 38.6531 34.4689C39.2508 33.921 39.8485 34.6183 39.8485 35.9134ZM102.61 36.1126V38.105H98.3761H94.1422V36.1126V34.1202H98.3761H102.61V36.1126Z" fill="#66615B"/>
<path d="M60.669 13.2501L60.918 17.0357L58.826 17.3345C57.6803 17.484 55.9868 18.1813 55.0404 18.8787C54.1438 19.576 53.1476 20.1737 52.8487 20.1737C52.5498 20.1737 52.3008 20.3232 52.3008 20.5224C52.3008 20.7715 56.2358 20.9209 61.0176 20.9209C65.7995 20.9209 69.7345 20.7715 69.7345 20.5224C69.7345 20.3232 69.2862 20.1737 68.7383 20.1737C68.1904 20.1737 67.7421 19.9745 67.7421 19.6756C67.7421 19.0779 64.1059 17.1851 62.8606 17.1851C62.0637 17.1851 61.8146 16.687 61.5656 14.5949C61.3165 12.7519 61.3663 11.955 61.8644 11.6561C62.3625 11.3074 62.3127 11.2078 61.6652 11.2078C61.2169 11.2078 60.7686 10.8093 60.6192 10.3112C60.5195 9.86293 60.5195 11.158 60.669 13.2501ZM65.0025 19.1277C66.4968 19.4764 65.4508 19.576 61.0176 19.576C57.1822 19.5262 55.6879 19.4266 56.7837 19.1775C59.1747 18.6794 62.6116 18.6794 65.0025 19.1277Z" fill="#66615B"/>
<path d="M4.03467 18.48C4.03467 19.0777 3.53656 19.8747 2.98864 20.2233C2.04224 20.8709 1.94262 21.4188 1.94262 27.2466C1.94262 32.8254 1.79318 33.6224 0.946403 34.4194C0.448296 34.8677 0 35.7145 0 36.2126C0 37.159 0.0498107 37.159 1.44451 36.1628C6.57501 32.4768 17.2843 30.584 22.4148 32.3771C25.3536 33.4232 25.5031 33.2737 22.9129 31.879C18.5296 29.5877 11.2074 29.0896 6.92368 30.8828C6.17652 31.1319 6.0769 30.6338 6.12671 26.101C6.12671 22.0663 5.97728 20.9207 5.37955 20.4724C4.93126 20.1237 4.48296 19.3267 4.33353 18.6792C4.13429 17.5834 4.13429 17.5834 4.03467 18.48ZM4.48296 25.1546C4.48296 26.7983 4.33353 27.147 3.48675 27.147C2.68978 27.147 2.49053 26.7983 2.49053 25.4535C2.49053 24.258 2.73959 23.6603 3.38713 23.5108C3.83542 23.3614 4.28372 23.2618 4.38334 23.212C4.43315 23.212 4.48296 24.0588 4.48296 25.1546Z" fill="#66615B"/>
<path d="M36.9092 21.1698C36.8594 22.0166 36.3613 22.6641 35.2655 23.1622C34.4187 23.5607 33.3727 24.4075 32.9742 25.0052L32.2769 26.1509H37.0587C40.0473 26.1509 41.8405 25.9516 41.8405 25.6528C41.8405 24.7562 39.4496 22.6641 38.4036 22.6641C37.7062 22.6641 37.3575 22.2656 37.2081 21.2694C37.0089 19.9744 37.0089 19.9744 36.9092 21.1698Z" fill="#66615B"/>
<path d="M51.6543 21.967C51.4551 22.1663 51.3057 22.764 51.3057 23.2621C51.3057 24.1089 51.9532 24.1587 61.0686 24.1587H70.7816L70.6322 23.013C70.4828 21.9172 70.3832 21.9172 61.218 21.7678C56.1373 21.718 51.8536 21.8176 51.6543 21.967Z" fill="#66615B"/>
<path d="M46.3247 25.5038V26.6494H60.7698H75.2149V25.5038V24.4079H60.7698H46.3247V25.5038Z" fill="#66615B"/>
<path d="M20.9199 43.9335C20.9199 46.3244 21.9659 47.5697 23.1614 46.5735C23.6097 46.2248 23.8588 45.2286 23.8588 44.1328L23.7591 42.3396L23.4603 44.083C23.0618 46.3743 21.6671 46.4739 21.6173 44.2324C21.6173 41.8415 20.9199 41.5924 20.9199 43.9335Z" fill="#66615B"/>
<path d="M26.5484 42.4387C25.6518 42.7874 25.7514 44.4311 26.648 44.7798C27.0465 44.9292 27.3952 45.2779 27.3952 45.5768C27.3952 45.8258 27.0465 46.0749 26.648 46.0749C26.2496 46.0749 25.9009 46.2741 25.9009 46.573C25.9009 47.37 27.196 47.1707 27.9431 46.2741C28.491 45.5768 28.4412 45.3277 27.4948 44.5806C26.1997 43.5345 26.1001 43.0862 27.1461 43.0862C27.5446 43.0862 27.8933 42.8372 27.8933 42.5881C27.8933 42.0402 27.5446 41.9904 26.5484 42.4387Z" fill="#66615B"/>
<path d="M45.9752 42.4387C45.0786 42.7874 45.1782 44.4311 46.0748 44.7798C46.4733 44.9292 46.822 45.2779 46.822 45.5768C46.822 45.8258 46.4733 46.0749 46.0748 46.0749C45.6763 46.0749 45.3276 46.2741 45.3276 46.573C45.3276 47.37 46.6227 47.1707 47.3699 46.2741C47.9178 45.5768 47.868 45.3277 46.9216 44.5806C45.6265 43.5345 45.5269 43.0862 46.5729 43.0862C46.9714 43.0862 47.3201 42.8372 47.3201 42.5881C47.3201 42.0402 46.9714 41.9904 45.9752 42.4387Z" fill="#66615B"/>
<path d="M55.7867 44.0831C55.7867 45.4778 55.5874 46.0755 55.0893 46.0755C54.1927 46.0755 53.7942 44.9796 54.1429 43.6348C54.2923 43.037 54.1927 42.5887 53.844 42.5887C53.0471 42.5887 53.1467 45.8264 53.9935 46.5238C55.2886 47.6196 56.2848 46.6234 56.2848 44.2823C56.2848 43.0868 56.1852 42.0906 56.0357 42.0906C55.8863 42.0906 55.7867 42.9872 55.7867 44.0831Z" fill="#66615B"/>
<path d="M58.9259 42.4395C58.5274 42.589 58.2783 43.5852 58.2783 44.9301C58.2783 47.1218 58.3281 47.1716 59.6232 46.8229C61.1175 46.4742 61.7651 45.7769 61.7651 44.5814C61.7651 43.1369 60.2209 41.9913 58.9259 42.4395ZM60.7689 44.5814C60.7689 45.5776 60.5198 46.0757 60.0217 46.0757C59.5236 46.0757 59.2745 45.5776 59.2745 44.5814C59.2745 43.5852 59.5236 43.0871 60.0217 43.0871C60.5198 43.0871 60.7689 43.5852 60.7689 44.5814Z" fill="#66615B"/>
<path d="M64.1066 42.4885C63.3594 42.6379 63.2598 43.0862 63.3594 44.73C63.4591 46.4734 63.7081 46.8718 64.6545 46.9715C65.2522 47.0711 65.7503 46.9217 65.7503 46.6228C65.7503 46.3239 65.4017 46.0749 65.0032 46.0749C64.6047 46.0749 64.256 45.7262 64.256 45.2779C64.256 44.8794 64.4553 44.6304 64.7043 44.8296C64.9534 44.979 65.3021 44.8794 65.5013 44.5805C65.6507 44.3315 65.4515 44.0824 65.053 44.0824C63.9572 44.0824 64.0568 43.1859 65.1526 42.9866C65.6009 42.887 65.8002 42.6877 65.5013 42.5383C65.2522 42.3889 64.6047 42.3391 64.1066 42.4885Z" fill="#66615B"/>
<path d="M73.2214 42.6381C72.524 42.8374 72.2252 42.9868 72.5738 43.0366C72.8727 43.0864 73.2712 44.0328 73.3708 45.1785L73.57 47.3203L73.6199 45.2283C73.7195 43.6841 73.9685 43.1362 74.6161 42.9868C75.0644 42.8872 75.2636 42.6879 74.9647 42.5385C74.7157 42.3891 73.9187 42.3891 73.2214 42.6381Z" fill="#66615B"/>
<path d="M76.6586 42.8869C76.1107 43.5842 76.1605 43.8333 77.1069 44.5804C78.5016 45.7261 78.5016 46.0747 77.1069 46.0747C76.3099 46.0747 76.1605 46.2242 76.559 46.6227C76.9077 46.9713 77.5054 47.071 77.9039 46.9215C78.9001 46.523 78.9499 44.6302 77.9537 44.2816C76.9575 43.8831 77.0073 43.0861 78.0035 43.0861C78.402 43.0861 78.6012 42.837 78.4518 42.588C78.0035 41.8906 77.4058 41.9903 76.6586 42.8869Z" fill="#66615B"/>
<path d="M88.1144 42.8869C87.5167 43.634 87.5665 43.8333 88.5627 44.4808C89.9574 45.3774 89.9574 46.0747 88.5627 46.0747C87.7657 46.0747 87.6163 46.2242 88.0148 46.6227C88.3634 46.9713 88.9612 47.071 89.3597 46.9215C90.3559 46.523 90.4057 44.6302 89.4095 44.2816C88.4133 43.8831 88.4631 43.0861 89.4593 43.0861C89.8578 43.0861 90.057 42.837 89.9076 42.588C89.4593 41.8906 88.8616 41.9903 88.1144 42.8869Z" fill="#66615B"/>
<path d="M92.797 42.4387C91.9004 42.7874 92 44.4311 92.8966 44.7798C93.2951 44.9292 93.6437 45.2779 93.6437 45.5768C93.6437 45.8258 93.2951 46.0749 92.8966 46.0749C92.4981 46.0749 92.1494 46.2741 92.1494 46.573C92.1494 47.37 93.4445 47.1707 94.1917 46.2741C94.7396 45.5768 94.6898 45.3277 93.7434 44.5806C92.4483 43.5345 92.3487 43.0862 93.3947 43.0862C93.7932 43.0862 94.1418 42.8372 94.1418 42.5881C94.1418 42.0402 93.7932 41.9904 92.797 42.4387Z" fill="#66615B"/>
<path d="M96.9318 42.7376C95.836 43.5346 96.0352 46.0251 97.2307 46.7225C98.3763 47.4697 99.6216 46.324 99.6216 44.5308C99.6216 42.7875 98.1771 41.8411 96.9318 42.7376ZM98.8744 44.0825C99.0239 44.6304 99.0239 45.278 98.8744 45.5769C98.476 46.2244 97.2805 46.2244 96.882 45.5769C96.4337 44.8297 97.0813 43.0863 97.8782 43.0863C98.2767 43.0863 98.6752 43.5346 98.8744 44.0825Z" fill="#66615B"/>
<path d="M102.211 42.8871C100.916 43.7837 100.816 45.1784 101.912 46.2743C102.759 47.1709 104.104 47.3203 104.104 46.5731C104.104 46.2743 103.655 46.075 103.108 46.075C102.36 46.075 102.111 45.7263 102.111 44.7799C102.111 43.9332 102.41 43.3852 103.108 43.2358C103.655 43.0864 104.104 42.7875 104.104 42.5385C104.104 41.8909 103.456 41.9905 102.211 42.8871Z" fill="#66615B"/>
<path d="M113.07 42.6879C113.07 42.8872 113.269 43.0864 113.518 43.0864C113.817 43.0864 114.116 44.0328 114.215 45.1785L114.415 47.3203L114.465 45.2283C114.564 43.6841 114.813 43.0864 115.461 42.9868C115.959 42.8374 115.66 42.6879 114.714 42.5385C113.817 42.3891 113.07 42.4389 113.07 42.6879Z" fill="#66615B"/>
<path d="M120.841 42.7376C119.746 43.5346 119.945 46.0251 121.14 46.7225C122.286 47.4697 123.531 46.324 123.531 44.5308C123.531 42.7875 122.087 41.8411 120.841 42.7376ZM122.684 44.0327C122.983 45.3278 122.336 46.2742 121.34 45.9255C120.543 45.6267 120.244 44.0327 120.891 43.435C121.489 42.7875 122.435 43.0863 122.684 44.0327Z" fill="#66615B"/>
<path d="M0.0499545 44.9298C0.149576 47.2211 0.149576 47.2211 0.44844 45.5774L0.797115 43.834L1.14579 45.1789C1.59409 46.8724 2.49068 47.0219 2.49068 45.4279C2.49068 44.6309 2.34125 44.5313 2.04238 44.9796C1.74352 45.4777 1.54427 45.2287 1.34503 44.1328C0.846925 41.7419 0.00014382 42.2898 0.0499545 44.9298Z" fill="#66615B"/>
<path d="M2.68994 43.2358C2.59032 43.5845 2.78956 44.6803 3.18804 45.6267L3.9352 47.3203L3.98502 44.9294C3.98502 42.7377 3.28767 41.7913 2.68994 43.2358Z" fill="#66615B"/>
<path d="M8.3673 42.9369C8.71597 43.0366 8.96502 44.0328 8.96502 45.1286C8.96502 46.3241 9.16427 47.0214 9.46313 46.8222C9.762 46.6727 9.96124 45.7762 9.96124 44.8298C9.96124 43.9332 10.2601 43.0366 10.6088 42.9369C10.9076 42.7875 10.4095 42.6879 9.46313 42.6879C8.51673 42.6879 8.01862 42.7875 8.3673 42.9369Z" fill="#66615B"/>
<path d="M14.9933 44.9294L15.0929 47.3203L15.3918 45.3279L15.7405 43.3355L16.139 44.9294C16.5873 46.9218 17.185 47.0214 17.7329 45.1785L18.1314 43.8336L18.4302 45.5769C18.7789 47.2705 18.7789 47.2207 18.8785 44.9294C18.9284 42.4389 18.1812 41.7415 17.6333 43.8336C17.2348 45.3777 16.5374 45.4773 16.3382 43.983C16.2386 43.3853 15.8899 42.8374 15.591 42.6879C15.1427 42.5385 14.9435 43.186 14.9933 44.9294Z" fill="#66615B"/>
<path d="M29.9858 44.6802C30.0854 46.4734 30.3345 46.8718 31.2809 46.9715C31.8786 47.0711 32.3767 46.9217 32.3767 46.6228C32.3767 46.3239 32.0281 46.0749 31.6296 46.0749C31.1315 46.0749 30.8824 45.527 30.8824 44.3315C30.8824 43.3851 30.6334 42.5881 30.3345 42.5881C30.0356 42.5881 29.8862 43.4349 29.9858 44.6802Z" fill="#66615B"/>
<path d="M33.8711 44.5307C33.8711 45.6265 34.1201 46.6725 34.3692 46.8219C34.6681 47.0212 34.8673 46.2242 34.8673 44.8793C34.8673 43.6341 34.6681 42.588 34.3692 42.588C34.1201 42.588 33.8711 43.4846 33.8711 44.5307Z" fill="#66615B"/>
<path d="M36.9099 44.9295C37.0095 47.2208 37.0095 47.2208 37.3084 45.577L37.6571 43.8336L38.0058 45.1785C38.4541 46.9717 39.1514 46.9717 39.6495 45.1785L40.048 43.8336L40.3469 45.577C40.6955 47.2706 40.6955 47.2208 40.7952 44.9295C40.845 42.3393 40.0978 41.8412 39.3008 43.9332L38.7529 45.3279L38.2548 43.9332C37.5077 41.8412 36.8601 42.3393 36.9099 44.9295Z" fill="#66615B"/>
<path d="M49.213 42.9369C49.5617 43.0366 49.8107 44.0328 49.8107 45.1286C49.8107 46.3241 50.01 47.0214 50.3088 46.8222C50.6077 46.6727 50.8069 45.7762 50.8069 44.8298C50.8069 43.9332 51.1058 43.0366 51.4545 42.9369C51.7533 42.7875 51.2552 42.6879 50.3088 42.6879C49.3624 42.6879 48.8643 42.7875 49.213 42.9369Z" fill="#66615B"/>
<path d="M67.793 44.9304C67.8926 47.2216 67.8926 47.2216 68.1915 45.5779C68.4903 44.0338 68.5899 43.9839 68.8888 44.9304C69.088 45.4783 69.5862 46.2752 69.9846 46.5741C70.6322 47.122 70.7318 46.873 70.7318 44.8805C70.7318 43.6353 70.4827 42.5892 70.2337 42.5892C69.9348 42.5892 69.8352 43.187 69.9846 43.9341C70.2835 45.279 70.2835 45.279 69.5363 44.3824C69.088 43.8345 68.7394 43.2368 68.7394 42.9877C68.7394 42.7885 68.5401 42.5892 68.2413 42.5892C67.9922 42.5892 67.793 43.6353 67.793 44.9304Z" fill="#66615B"/>
<path d="M83.9813 42.987C83.8817 43.1863 83.6326 44.2323 83.4832 45.3281C83.3337 46.424 83.3337 46.9221 83.4832 46.424C83.6326 45.9757 84.0809 45.5772 84.4296 45.5772C84.8281 45.5772 85.376 45.9757 85.625 46.424C86.3224 47.6194 86.3224 46.8723 85.5752 44.5312C85.0273 42.6882 84.5292 42.1403 83.9813 42.987Z" fill="#66615B"/>
<path d="M109.136 44.4308C108.439 46.8217 108.488 47.5689 109.136 46.4233C109.385 45.975 109.983 45.5765 110.331 45.5765C110.73 45.5765 111.078 45.975 111.128 46.4233C111.128 46.9712 111.278 47.0708 111.427 46.7221C111.726 45.9252 110.63 42.5878 110.082 42.5878C109.833 42.5878 109.385 43.4346 109.136 44.4308Z" fill="#66615B"/>
<path d="M125.574 44.9294C125.673 47.1709 125.673 47.2207 125.972 45.577L126.271 43.8834L126.869 45.2283C127.765 47.1709 128.513 46.872 128.513 44.5807C128.513 43.4351 128.264 42.5883 127.965 42.5883C127.566 42.5883 127.516 43.1362 127.716 44.1823L128.014 45.826L127.018 44.1823C126.47 43.3355 125.922 42.5883 125.773 42.5883C125.624 42.5883 125.574 43.6343 125.574 44.9294Z" fill="#66615B"/>
<path d="M0 49.562C0 49.9106 21.4684 50.0601 64.2558 50.0601C106.147 50.0601 128.512 49.8608 128.512 49.562C128.512 49.2133 106.147 49.0638 64.2558 49.0638C21.4684 49.0638 0 49.2133 0 49.562Z" fill="#66615B"/>
</svg>
